<svg xmlns="http://www.w3.org/2000/svg" xmlns:xlink="http://www.w3.org/1999/xlink" xmlns:lucid="lucid" width="2697" height="1302"><g transform="translate(-261 0)" lucid:page-tab-id="blI8hDc2YI1A"><path d="M340 25c0-2.76 2.24-5 5-5h2530c2.76 0 5 2.24 5 5v1230c0 2.76-2.24 5-5 5H345c-2.76 0-5-2.24-5-5z" stroke="#666" stroke-width="3" fill="#f9faf4"/><path d="M1200.67 65c0-2.76 2.24-5 5-5h1250c2.76 0 5 2.24 5 5v950c0 2.76-2.24 5-5 5h-1250c-2.76 0-5-2.24-5-5z" stroke="#666" stroke-width="3" fill="#fff"/><path d="M360 105c0-2.76 2.24-5 5-5h288.67c2.76 0 5 2.24 5 5v330c0 2.76-2.24 5-5 5H365c-2.76 0-5-2.24-5-5z" stroke="#000" stroke-opacity="0" stroke-width="3" fill="#f9faf4"/><use xlink:href="#a" transform="matrix(1,0,0,1,365,105) translate(64.48697916666666 151.2890625)"/><use xlink:href="#b" transform="matrix(1,0,0,1,365,105) translate(124.49674479166666 217.95572916666669)"/><path d="M800 105c0-2.76 2.24-5 5-5h288.67c2.76 0 5 2.24 5 5v330c0 2.76-2.24 5-5 5H805c-2.76 0-5-2.24-5-5z" stroke="#666" stroke-width="3" fill="#f5f7fc"/><path d="M820 269.53c0-2.76 2.24-5 5-5h107.33c2.76 0 5 2.24 5 5v107.33c0 2.77-2.24 5-5 5H825c-2.76 0-5-2.23-5-5z" stroke="#666" stroke-width="3" fill="#f6f2f7"/><path d="M960 269.53c0-2.76 2.24-5 5-5h107.33c2.76 0 5 2.24 5 5v107.33c0 2.77-2.24 5-5 5H965c-2.76 0-5-2.23-5-5z" stroke="#666" stroke-width="3" fill="#f1f7f5"/><path d="M831.95 368.92c-.7 2.67.96 4.83 3.72 4.83h86c2.76 0 4.42-2.16 3.7-4.83l-6.63-24.9c-.7-2.66-3.53-4.82-6.3-4.82H844.9c-2.76 0-5.58 2.16-6.3 4.83z" stroke="#666" stroke-width="3" fill="#f7f4f2"/><path d="M489.33 485c0-2.76 2.24-5 5-5h30c2.76 0 5 2.24 5 5v710c0 2.76-2.24 5-5 5h-30c-2.76 0-5-2.24-5-5z" stroke="#666" stroke-width="3" fill="#fff"/><path d="M929.33 525c0-2.76 2.24-5 5-5h30c2.76 0 5 2.24 5 5v110c0 2.76-2.24 5-5 5h-30c-2.76 0-5-2.24-5-5z" stroke="#666" stroke-width="3" fill="#f5f7fc"/><path d="M1369.33 645c0-2.76 2.24-5 5-5h30c2.76 0 5 2.24 5 5v330c0 2.76-2.24 5-5 5h-30c-2.76 0-5-2.24-5-5z" stroke="#666" stroke-width="3" fill="#f9faf4"/><path d="M926.83 606.5h-377.5" stroke="#000" stroke-width="2" fill="none"/><path d="M927.83 607.5h-1.02v-2h1.03z"/><path d="M534.07 606.5l14.27-4.63v9.27z" stroke="#000" stroke-width="2"/><path d="M531.83 549.65h377.5" stroke="#000" stroke-width="2" fill="none"/><path d="M531.86 550.65h-1.03v-2h1.03z"/><path d="M924.6 549.65l-14.27 4.63V545z" stroke="#000" stroke-width="2"/><path d="M1366.83 933.72h-817.5" stroke="#000" stroke-width="2" fill="none"/><path d="M1367.83 934.72h-1.02v-2h1.03z"/><path d="M534.07 933.72l14.27-4.64v9.27z" stroke="#000" stroke-width="2"/><path d="M531.83 695.18h817.5" stroke="#000" stroke-width="2" fill="none"/><path d="M531.86 696.18h-1.03v-2h1.03z"/><path d="M1364.6 695.18l-14.27 4.63v-9.26z" stroke="#000" stroke-width="2"/><path d="M486.83 1150.52l-166.83-.45" stroke="#000" stroke-width="2" fill="none"/><path d="M487.83 1149.52v2h-1.02v-2z"/><path d="M304.74 1150.03l14.27-4.6v9.28z" stroke="#000" stroke-width="2"/><path d="M509.33 477.5V441" stroke="#666" stroke-width="2" fill="none"/><path d="M510.33 478.5h-2v-1.03h2zM510.33 441.03h-2V440h2z" fill="#666"/><path d="M949.33 442.5v75" stroke="#666" stroke-width="2" fill="none"/><path d="M950.33 442.53h-2v-1.03h2zM950.33 518.5h-2v-1.03h2z" fill="#666"/><path d="M1389.33 442.5v195M1389.33 442.53v-1.03" stroke="#666" stroke-width="2" fill="none"/><path d="M1390.33 638.5h-2v-1.03h2z" fill="#666"/><path d="M469.33 538.05l-166.83.48" stroke="#000" stroke-width="2" fill="none"/><path d="M484.6 538l-14.26 4.7-.02-9.28z" stroke="#000" stroke-width="2"/><path d="M302.53 538.53h-1.03" stroke="#000" stroke-width="2" fill="none"/><path d="M509.33 1202.5v55" stroke="#b2b2b2" stroke-width="2" fill="none"/><path d="M510.33 1202.53h-2v-1.03h2z" fill="#b2b2b2"/><path d="M509.33 1257.47v1.03M949.33 642.5v615" stroke="#b2b2b2" stroke-width="2" fill="none"/><path d="M950.33 642.53h-2v-1.03h2z" fill="#b2b2b2"/><path d="M949.33 1257.47v1.03M1389.33 982.5v38" stroke="#b2b2b2" stroke-width="2" fill="none"/><path d="M1390.33 982.53h-2v-1.03h2zM1390.33 1021.5h-2v-1.03h2z" fill="#b2b2b2"/><path d="M1829.33 442.5v235" stroke="#666" stroke-width="2" fill="none"/><path d="M1830.33 442.53h-2v-1.03h2zM1830.33 678.5h-2v-1.03h2z" fill="#666"/><path d="M1830.67 802.5v458" stroke="#b2b2b2" stroke-width="2" fill="none"/><path d="M1831.67 802.53h-2v-1.03h2zM1831.67 1261.5h-2v-1.03h2z" fill="#b2b2b2"/><path d="M1240 105c0-2.76 2.24-5 5-5h288.67c2.76 0 5 2.24 5 5v330c0 2.76-2.24 5-5 5H1245c-2.76 0-5-2.24-5-5z" stroke="#000" stroke-opacity="0" stroke-width="3" fill="#fff"/><use xlink:href="#c" transform="matrix(1,0,0,1,1245.0000000000002,105) translate(80.48958333333333 156.09375)"/><use xlink:href="#d" transform="matrix(1,0,0,1,1245.0000000000002,105) translate(128.49739583333334 209.42708333333334)"/><path d="M2686.83 1128.13H552.48" stroke="#000" stroke-width="2" fill="none"/><path d="M2687.83 1129.13h-1.02v-2h1.03z"/><path d="M537.22 1128.13l14.26-4.63v9.27z" stroke="#000" stroke-width="2"/><path d="M531.83 1071.42h2137.5" stroke="#000" stroke-width="2" fill="none"/><path d="M531.86 1072.42h-1.03v-2h1.03z"/><path d="M2684.6 1071.42l-14.27 4.63v-9.27z" stroke="#000" stroke-width="2"/><path d="M1758.7 262.03l.08-2.3.3-2.97.5-2.7.62-2.5.77-2.34.9-2.2 1.02-2.08 1.15-2 1.3-1.92 1.5-1.87 1.66-1.83 1.9-1.8 2.17-1.8 2.48-1.76 2.87-1.76 3.38-1.75 4-1.73 4.84-1.7 5.92-1.62 7.4-1.48 9.42-1.2 12.25-.67 4.56-.05 13.47.46 10 1.08 7.7 1.4 6.08 1.57 4.9 1.66 4.06 1.7 3.4 1.73 2.9 1.74 2.5 1.76 2.17 1.78 1.9 1.82 1.7 1.86 1.5 1.9 1.32 2 1.18 2.06.3.6" stroke="#666" stroke-width="2" fill="none"/><path d="M1759.7 262.04l-.03 1h-2l.03-1.07z" fill="#666"/><path d="M1897.98 259.87l-7.57-12.95 9.07-1.98z" stroke="#666" stroke-width="2" fill="#666"/><path d="M1898.63 384.36l-.1 2.62-.34 3.22-.54 2.92-.7 2.66-.83 2.47-.97 2.3-1.1 2.18-1.26 2.08-1.4 2-1.6 1.93-1.8 1.88-2.02 1.85-2.3 1.8-2.68 1.8-3.1 1.77-3.66 1.75-4.37 1.72-5.3 1.64-6.6 1.53-8.3 1.3-10.8.9-9.2.22-12.9-.44-10.06-1.05-7.93-1.4-6.38-1.6-5.2-1.7-4.3-1.74-3.63-1.78-3.08-1.8-2.65-1.8-2.3-1.8-2-1.84-1.78-1.86-1.57-1.9-1.38-1.93-1.23-2-.54-1.03" stroke="#666" stroke-width="2" fill="none"/><path d="M1899.63 384.43l-2-.08.04-1h2z" fill="#666"/><path d="M1759.4 386.52l7.7 12.87-9.05 2.06z" stroke="#666" stroke-width="2" fill="#666"/><path d="M1680 105c0-2.76 2.24-5 5-5h288.67c2.76 0 5 2.24 5 5v330c0 2.76-2.24 5-5 5H1685c-2.76 0-5-2.24-5-5z" stroke="#666" stroke-width="3" fill="#f5f7fc"/><path d="M1700 269.53c0-2.76 2.24-5 5-5h107.33c2.76 0 5 2.24 5 5v107.33c0 2.77-2.24 5-5 5H1705c-2.76 0-5-2.23-5-5z" stroke="#666" stroke-width="3" fill="#f6f2f7"/><path d="M1840 269.53c0-2.76 2.24-5 5-5h107.33c2.76 0 5 2.24 5 5v107.33c0 2.77-2.24 5-5 5H1845c-2.76 0-5-2.23-5-5z" stroke="#666" stroke-width="3" fill="#f1f7f5"/><path d="M1711.95 368.92c-.7 2.67.96 4.83 3.72 4.83h86c2.76 0 4.42-2.16 3.7-4.83l-6.63-24.9c-.7-2.66-3.53-4.82-6.3-4.82h-67.56c-2.76 0-5.58 2.16-6.3 4.83z" stroke="#666" stroke-width="3" fill="#f7f4f2"/><path d="M2638.7 262.03l.08-2.3.3-2.97.5-2.7.62-2.5.77-2.34.9-2.2 1.02-2.08 1.15-2 1.3-1.92 1.5-1.87 1.66-1.83 1.9-1.8 2.17-1.8 2.48-1.76 2.87-1.76 3.38-1.75 4-1.73 4.84-1.7 5.92-1.62 7.4-1.48 9.42-1.2 12.25-.67 4.56-.05 13.47.46 10 1.08 7.7 1.4 6.08 1.57 4.9 1.66 4.06 1.7 3.4 1.73 2.9 1.74 2.5 1.76 2.17 1.78 1.9 1.82 1.7 1.86 1.5 1.9 1.32 2 1.18 2.06.3.6" stroke="#666" stroke-width="2" fill="none"/><path d="M2639.7 262.04l-.03 1h-2l.03-1.07z" fill="#666"/><path d="M2777.98 259.87l-7.57-12.95 9.07-1.98z" stroke="#666" stroke-width="2" fill="#666"/><path d="M2778.63 384.36l-.1 2.62-.34 3.22-.54 2.92-.7 2.66-.83 2.47-.97 2.3-1.1 2.18-1.26 2.08-1.4 2-1.6 1.93-1.8 1.88-2.02 1.85-2.3 1.8-2.68 1.8-3.1 1.77-3.66 1.75-4.37 1.72-5.3 1.64-6.6 1.53-8.3 1.3-10.8.9-9.2.22-12.9-.44-10.06-1.05-7.93-1.4-6.38-1.6-5.2-1.7-4.3-1.74-3.63-1.78-3.08-1.8-2.65-1.8-2.3-1.8-2-1.84-1.78-1.86-1.57-1.9-1.38-1.93-1.23-2-.54-1.03" stroke="#666" stroke-width="2" fill="none"/><path d="M2779.63 384.43l-2-.08.04-1h2z" fill="#666"/><path d="M2639.4 386.52l7.7 12.87-9.05 2.06z" stroke="#666" stroke-width="2" fill="#666"/><path d="M2560 105c0-2.76 2.24-5 5-5h288.67c2.76 0 5 2.24 5 5v330c0 2.76-2.24 5-5 5H2565c-2.76 0-5-2.24-5-5z" stroke="#666" stroke-width="3" fill="#f5f7fc"/><path d="M2580 269.53c0-2.76 2.24-5 5-5h107.33c2.76 0 5 2.24 5 5v107.33c0 2.77-2.24 5-5 5H2585c-2.76 0-5-2.23-5-5z" stroke="#666" stroke-width="3" fill="#f6f2f7"/><path d="M2720 269.53c0-2.76 2.24-5 5-5h107.33c2.76 0 5 2.24 5 5v107.33c0 2.77-2.24 5-5 5H2725c-2.76 0-5-2.23-5-5z" stroke="#666" stroke-width="3" fill="#f1f7f5"/><path d="M2591.95 368.92c-.7 2.67.96 4.83 3.72 4.83h86c2.76 0 4.42-2.16 3.7-4.83l-6.63-24.9c-.7-2.66-3.53-4.82-6.3-4.82h-67.56c-2.76 0-5.58 2.16-6.3 4.83z" stroke="#666" stroke-width="3" fill="#f7f4f2"/><path d="M2198.7 262.03l.08-2.3.3-2.97.5-2.7.62-2.5.77-2.34.9-2.2 1.02-2.08 1.15-2 1.3-1.92 1.5-1.87 1.66-1.83 1.9-1.8 2.17-1.8 2.48-1.76 2.87-1.76 3.38-1.75 4-1.73 4.84-1.7 5.92-1.62 7.4-1.48 9.42-1.2 12.25-.67 4.56-.05 13.47.46 10 1.08 7.7 1.4 6.08 1.57 4.9 1.66 4.06 1.7 3.4 1.73 2.9 1.74 2.5 1.76 2.17 1.78 1.9 1.82 1.7 1.86 1.5 1.9 1.32 2 1.18 2.06.3.6" stroke="#666" stroke-width="2" fill="none"/><path d="M2199.7 262.04l-.03 1h-2l.03-1.07z" fill="#666"/><path d="M2337.98 259.87l-7.57-12.95 9.07-1.98z" stroke="#666" stroke-width="2" fill="#666"/><path d="M2338.63 384.36l-.1 2.62-.34 3.22-.54 2.92-.7 2.66-.83 2.47-.97 2.3-1.1 2.18-1.26 2.08-1.4 2-1.6 1.93-1.8 1.88-2.02 1.85-2.3 1.8-2.68 1.8-3.1 1.77-3.66 1.75-4.37 1.72-5.3 1.64-6.6 1.53-8.3 1.3-10.8.9-9.2.22-12.9-.44-10.06-1.05-7.93-1.4-6.38-1.6-5.2-1.7-4.3-1.74-3.63-1.78-3.08-1.8-2.65-1.8-2.3-1.8-2-1.84-1.78-1.86-1.57-1.9-1.38-1.93-1.23-2-.54-1.03" stroke="#666" stroke-width="2" fill="none"/><path d="M2339.63 384.43l-2-.08.04-1h2z" fill="#666"/><path d="M2199.4 386.52l7.7 12.87-9.05 2.06z" stroke="#666" stroke-width="2" fill="#666"/><path d="M2120 105c0-2.76 2.24-5 5-5h288.67c2.76 0 5 2.24 5 5v330c0 2.76-2.24 5-5 5H2125c-2.76 0-5-2.24-5-5z" stroke="#666" stroke-width="3" fill="#f5f7fc"/><path d="M2140 269.53c0-2.76 2.24-5 5-5h107.33c2.76 0 5 2.24 5 5v107.33c0 2.77-2.24 5-5 5H2145c-2.76 0-5-2.23-5-5z" stroke="#666" stroke-width="3" fill="#f6f2f7"/><path d="M2280 269.53c0-2.76 2.24-5 5-5h107.33c2.76 0 5 2.24 5 5v107.33c0 2.77-2.24 5-5 5H2285c-2.76 0-5-2.23-5-5z" stroke="#666" stroke-width="3" fill="#f1f7f5"/><path d="M2151.95 368.92c-.7 2.67.96 4.83 3.72 4.83h86c2.76 0 4.42-2.16 3.7-4.83l-6.63-24.9c-.7-2.66-3.53-4.82-6.3-4.82h-67.56c-2.76 0-5.58 2.16-6.3 4.83z" stroke="#666" stroke-width="3" fill="#f7f4f2"/><path d="M1810.67 685c0-2.76 2.24-5 5-5h30c2.76 0 5 2.24 5 5v110c0 2.76-2.24 5-5 5h-30c-2.76 0-5-2.24-5-5zM2249.33 805c0-2.76 2.24-5 5-5h30c2.76 0 5 2.24 5 5v110c0 2.76-2.24 5-5 5h-30c-2.76 0-5-2.24-5-5z" stroke="#666" stroke-width="3" fill="#f5f7fc"/><path d="M2269.33 442.5v355" stroke="#666" stroke-width="2" fill="none"/><path d="M2270.33 442.53h-2v-1.03h2zM2270.33 798.5h-2v-1.03h2z" fill="#666"/><path d="M1411.83 718.63h378.83" stroke="#000" stroke-width="2" fill="none"/><path d="M1411.86 719.63h-1.03v-2h1.03z"/><path d="M1805.93 718.63l-14.27 4.64V714z" stroke="#000" stroke-width="2"/><path d="M1808.17 762.35h-378.83" stroke="#000" stroke-width="2" fill="none"/><path d="M1809.17 763.35h-1.03v-2h1.03z"/><path d="M1414.07 762.35l14.27-4.63V767z" stroke="#000" stroke-width="2"/><path d="M2246.83 887.77h-817.5" stroke="#000" stroke-width="2" fill="none"/><path d="M2247.83 888.77h-1.02v-2h1.03z"/><path d="M1414.07 887.77l14.27-4.64v9.27z" stroke="#000" stroke-width="2"/><path d="M1411.83 845.23h817.5" stroke="#000" stroke-width="2" fill="none"/><path d="M1411.86 846.23h-1.03v-2h1.03z"/><path d="M2244.6 845.23l-14.27 4.64v-9.27z" stroke="#000" stroke-width="2"/><path d="M2689.33 1045c0-2.76 2.24-5 5-5h30c2.76 0 5 2.24 5 5v110c0 2.76-2.24 5-5 5h-30c-2.76 0-5-2.24-5-5z" stroke="#666" stroke-width="3" fill="#f5f7fc"/><path d="M2709.33 442.5v595" stroke="#000" stroke-width="2" fill="none"/><path d="M2710.33 442.53h-2v-1.03h2zM2710.33 1038.5h-2v-1.03h2z"/><path d="M2709.33 1162.5v95" stroke="#b2b2b2" stroke-width="2" fill="none"/><path d="M2710.33 1162.53h-2v-1.03h2z" fill="#b2b2b2"/><path d="M2709.33 1257.47v1.03M2269.33 922.5v98" stroke="#b2b2b2" stroke-width="2" fill="none"/><path d="M2270.33 922.53h-2v-1.03h2zM2270.33 1021.5h-2v-1.03h2z" fill="#b2b2b2"/><defs><path d="M385-1193v494h676v158H385V0H194v-1349h891v156H385" id="e"/><path d="M736-142h380V0H134v-142h422v-1200H267v-142h469v1342" id="f"/><path d="M615-1102c343 0 484 203 482 560-1 347-147 562-488 562-336 0-475-219-479-562-4-349 156-560 485-560zm-8 989c240 0 301-180 301-429 0-245-55-427-290-427-236 0-299 181-299 427 0 243 61 429 288 429" id="g"/><path d="M1018 0H814c-67-224-138-444-200-673C552-442 476-224 407 0H204L21-1082h178c43 310 105 601 126 933 54-225 128-425 193-638h193c63 212 134 415 185 638 22-336 90-622 136-933h176" id="h"/><g id="a"><use transform="matrix(0.032552083333333336,0,0,0.032552083333333336,0,0)" xlink:href="#e"/><use transform="matrix(0.032552083333333336,0,0,0.032552083333333336,40.00651041666667,0)" xlink:href="#f"/><use transform="matrix(0.032552083333333336,0,0,0.032552083333333336,80.01302083333334,0)" xlink:href="#g"/><use transform="matrix(0.032552083333333336,0,0,0.032552083333333336,120.01953125000001,0)" xlink:href="#h"/></g><path d="M1034 0L896-382H333L196 0H0l510-1349h217L1228 0h-194zM847-531c-77-225-157-447-231-674-69 231-154 451-232 674h463" id="i"/><use transform="matrix(0.032552083333333336,0,0,0.032552083333333336,0,0)" xlink:href="#i" id="b"/><g id="c"><use transform="matrix(0.026041666666666668,0,0,0.026041666666666668,0,0)" xlink:href="#e"/><use transform="matrix(0.026041666666666668,0,0,0.026041666666666668,32.005208333333336,0)" xlink:href="#f"/><use transform="matrix(0.026041666666666668,0,0,0.026041666666666668,64.01041666666667,0)" xlink:href="#g"/><use transform="matrix(0.026041666666666668,0,0,0.026041666666666668,96.015625,0)" xlink:href="#h"/></g><path d="M802-711c201 25 350 118 350 331C1152-95 921 0 634 0H162v-1349c401 9 908-74 908 327 0 184-111 275-268 311zm-224-69c174-2 300-51 300-218 0-163-124-198-302-198H353v416h225zM353-153c281-2 612 44 606-244-5-271-329-233-606-234v478" id="j"/><use transform="matrix(0.026041666666666668,0,0,0.026041666666666668,0,0)" xlink:href="#j" id="d"/></defs></g></svg>