<svg xmlns="http://www.w3.org/2000/svg" xmlns:xlink="http://www.w3.org/1999/xlink" xmlns:lucid="lucid" width="1875" height="1140"><g transform="translate(-660 0)" lucid:page-tab-id="75p8Bd8t.44Z"><path d="M980 37c0-2.76 2.24-5 5-5h1250c2.76 0 5 2.24 5 5v1058c0 2.76-2.24 5-5 5H985c-2.76 0-5-2.24-5-5z" stroke="#666" stroke-width="3" fill="#f9faf4"/><path d="M1460 65c0-2.76 2.24-5 5-5h288.67c2.76 0 5 2.24 5 5v330c0 2.76-2.24 5-5 5H1465c-2.76 0-5-2.24-5-5z" stroke="#666" stroke-width="3" fill="#f5f7fc"/><use xlink:href="#a" transform="matrix(1,0,0,1,1465,65) translate(144.5 31.9921875)"/><use xlink:href="#b" transform="matrix(1,0,0,1,1465,65) translate(36.482421875 71.9921875)"/><use xlink:href="#c" transform="matrix(1,0,0,1,1465,65) translate(204.509765625 71.9921875)"/><path d="M1470.67 229.53c0-2.76 2.24-5 5-5H1583c2.76 0 5 2.24 5 5v107.33c0 2.77-2.24 5-5 5h-107.33c-2.76 0-5-2.23-5-5z" stroke="#666" stroke-width="3" fill="#f6f2f7"/><path d="M1630.67 229.53c0-2.76 2.24-5 5-5H1743c2.76 0 5 2.24 5 5v107.33c0 2.77-2.24 5-5 5h-107.33c-2.76 0-5-2.23-5-5z" stroke="#666" stroke-width="3" fill="#f1f7f5"/><path d="M1482.62 328.92c-.7 2.67.95 4.83 3.7 4.83h86c2.77 0 4.44-2.16 3.73-4.83l-6.64-24.9c-.7-2.66-3.52-4.82-6.28-4.82h-67.57c-2.76 0-5.58 2.16-6.3 4.83z" stroke="#666" stroke-width="3" fill="#f7f4f2"/><path d="M1529.36 222.03l.04-1.3.2-2.14.32-2.04.43-1.93.53-1.86.64-1.8.75-1.75.87-1.7.98-1.7 1.12-1.67 1.28-1.66 1.45-1.68 1.66-1.68 1.9-1.7 2.17-1.72 2.53-1.74 2.95-1.8 3.46-1.8 4.1-1.83 4.94-1.83 5.93-1.8 7.2-1.7 8.75-1.5 10.52-1.13 12.37-.58 3.25-.02 12.8.4 10.92 1 9.07 1.44 7.44 1.66 6.13 1.77 5.08 1.82 4.24 1.82 3.55 1.8 3.03 1.8 2.6 1.76 2.23 1.73 1.95 1.72 1.7 1.7 1.5 1.67 1.3 1.68 1.14 1.68" stroke="#666" stroke-width="2" fill="none"/><path d="M1530.36 222.04l-.03 1h-2l.04-1.07z" fill="#666"/><path d="M1688.46 219.92l-8.33-12.48 8.93-2.5z" stroke="#666" stroke-width="2" fill="#666"/><path d="M1689.3 344.36l-.04 1.35-.2 2.22-.34 2.1-.44 1.97-.55 1.9-.67 1.85-.77 1.8-.9 1.75-1.04 1.74-1.16 1.7-1.33 1.73-1.5 1.7-1.73 1.74-1.98 1.75-2.28 1.77-2.63 1.8-3.08 1.8-3.63 1.86-4.3 1.86-5.13 1.85-6.17 1.8-7.45 1.66-9 1.42-10.67 1.02-12.33.4h-.3l-12.3-.38-10.8-1-9.1-1.42-7.57-1.67-6.3-1.8-5.22-1.86-4.37-1.87-3.67-1.85-3.13-1.83-2.67-1.8-2.3-1.75-2-1.74-1.75-1.72-1.53-1.7-1.33-1.68-1.18-1.7-.12-.2" stroke="#666" stroke-width="2" fill="none"/><path d="M1690.3 344.42l-2-.06.03-1h2z" fill="#666"/><path d="M1530.22 346.48l8.35 12.46-8.92 2.53z" stroke="#666" stroke-width="2" fill="#666"/><path d="M1020 65c0-2.76 2.24-5 5-5h288.67c2.76 0 5 2.24 5 5v330c0 2.76-2.24 5-5 5H1025c-2.76 0-5-2.24-5-5z" stroke="#000" stroke-opacity="0" stroke-width="3" fill="#f9faf4"/><use xlink:href="#d" transform="matrix(1,0,0,1,1025,64.99999999999997) translate(64.48697916666666 187.3828125)"/><path d="M1900 65c0-2.76 2.24-5 5-5h288.67c2.76 0 5 2.24 5 5v330c0 2.76-2.24 5-5 5H1905c-2.76 0-5-2.24-5-5z" stroke="#666" stroke-width="3" fill="#f5f7fc"/><use xlink:href="#a" transform="matrix(1,0,0,1,1905,65) translate(144.5 31.9921875)"/><use xlink:href="#b" transform="matrix(1,0,0,1,1905,65) translate(36.482421875 71.9921875)"/><use xlink:href="#e" transform="matrix(1,0,0,1,1905,65) translate(204.509765625 71.9921875)"/><path d="M1910.67 229.53c0-2.76 2.24-5 5-5H2023c2.76 0 5 2.24 5 5v107.33c0 2.77-2.24 5-5 5h-107.33c-2.76 0-5-2.23-5-5z" stroke="#666" stroke-width="3" fill="#f6f2f7"/><path d="M2070.67 229.53c0-2.76 2.24-5 5-5H2183c2.76 0 5 2.24 5 5v107.33c0 2.77-2.24 5-5 5h-107.33c-2.76 0-5-2.23-5-5z" stroke="#666" stroke-width="3" fill="#f1f7f5"/><path d="M1922.62 328.92c-.7 2.67.95 4.83 3.7 4.83h86c2.77 0 4.44-2.16 3.73-4.83l-6.64-24.9c-.7-2.66-3.52-4.82-6.28-4.82h-67.57c-2.76 0-5.58 2.16-6.3 4.83z" stroke="#666" stroke-width="3" fill="#f7f4f2"/><path d="M1969.36 222.03l.04-1.3.2-2.14.32-2.04.43-1.93.53-1.86.64-1.8.75-1.75.87-1.7.98-1.7 1.12-1.67 1.28-1.66 1.45-1.68 1.66-1.68 1.9-1.7 2.17-1.72 2.53-1.74 2.95-1.8 3.46-1.8 4.1-1.83 4.94-1.83 5.93-1.8 7.2-1.7 8.75-1.5 10.52-1.13 12.37-.58 3.25-.02 12.8.4 10.92 1 9.07 1.44 7.44 1.66 6.13 1.77 5.08 1.82 4.24 1.82 3.55 1.8 3.03 1.8 2.6 1.76 2.23 1.73 1.95 1.72 1.7 1.7 1.5 1.67 1.3 1.68 1.14 1.68" stroke="#666" stroke-width="2" fill="none"/><path d="M1970.36 222.04l-.03 1h-2l.04-1.07z" fill="#666"/><path d="M2128.46 219.92l-8.33-12.48 8.93-2.5z" stroke="#666" stroke-width="2" fill="#666"/><path d="M2129.3 344.36l-.04 1.35-.2 2.22-.34 2.1-.44 1.97-.55 1.9-.67 1.85-.77 1.8-.9 1.75-1.04 1.74-1.16 1.7-1.33 1.73-1.5 1.7-1.73 1.74-1.98 1.75-2.28 1.77-2.63 1.8-3.08 1.8-3.63 1.86-4.3 1.86-5.13 1.85-6.17 1.8-7.45 1.66-9 1.42-10.67 1.02-12.33.4h-.3l-12.3-.38-10.8-1-9.1-1.42-7.57-1.67-6.3-1.8-5.22-1.86-4.37-1.87-3.67-1.85-3.13-1.83-2.67-1.8-2.3-1.75-2-1.74-1.75-1.72-1.53-1.7-1.33-1.68-1.18-1.7-.12-.2" stroke="#666" stroke-width="2" fill="none"/><path d="M2130.3 344.42l-2-.06.03-1h2z" fill="#666"/><path d="M1970.22 346.48l8.35 12.46-8.92 2.53z" stroke="#666" stroke-width="2" fill="#666"/><path d="M1149.33 445c0-2.76 2.24-5 5-5h30c2.76 0 5 2.24 5 5v590c0 2.76-2.24 5-5 5h-30c-2.76 0-5-2.24-5-5z" stroke="#666" stroke-width="3" fill="#fff"/><path d="M1589.33 485c0-2.76 2.24-5 5-5h30c2.76 0 5 2.24 5 5v230c0 2.76-2.24 5-5 5h-30c-2.76 0-5-2.24-5-5zM2029.33 725c0-2.76 2.24-5 5-5h30c2.76 0 5 2.24 5 5v230c0 2.76-2.24 5-5 5h-30c-2.76 0-5-2.24-5-5z" stroke="#666" stroke-width="3" fill="#f5f7fc"/><path d="M1277.32 654h-67.98v-2h67.98zm309.5 0h-85.47v-2h85.48z"/><path d="M1587.83 654h-1.02v-2h1.03zM1208.34 657.64l-14.27-4.63 14.27-4.63z"/><path d="M1209.34 659.02l-18.5-6 18.5-6.03zm-12.03-6l10.04 3.25v-6.52z"/><use xlink:href="#f" transform="matrix(1,0,0,1,1277.3151041666858,637.451053367691) translate(0 24.882812500000004)"/><use xlink:href="#g" transform="matrix(1,0,0,1,1277.3151041666858,637.451053367691) translate(112.01822916666669 24.882812500000004)"/><path d="M1295.98 540.3h-104.15v-2h104.15zm273.35 0h-86.65v-2h86.65z"/><path d="M1191.86 540.3h-1.03v-2h1.03zM1584.6 539.3l-14.27 4.63v-9.27z"/><path d="M1587.83 539.3l-18.5 6v-12.02zm-16.5 3.25l10.03-3.26-10.03-3.27z"/><use xlink:href="#h" transform="matrix(1,0,0,1,1295.984809027797,523.7366551418665) translate(0 24.882812500000004)"/><path d="M1497.32 894.72h-287.98v-2h287.98zm529.5 0h-305.47v-2h305.48z"/><path d="M2027.83 894.72h-1.02v-2h1.03zM1208.34 898.35l-14.27-4.63 14.27-4.64z"/><path d="M1209.34 899.73l-18.5-6 18.5-6.03zm-12.03-6l10.04 3.24v-6.5z"/><use xlink:href="#i" transform="matrix(1,0,0,1,1497.3151041666667,864.8267849523763) translate(0 10.6640625)"/><use xlink:href="#j" transform="matrix(1,0,0,1,1497.3151041666667,864.8267849523763) translate(0 38.216145833333336)"/><use xlink:href="#k" transform="matrix(1,0,0,1,1497.3151041666667,864.8267849523763) translate(112.01822916666669 38.216145833333336)"/><use xlink:href="#l" transform="matrix(1,0,0,1,1497.3151041666667,864.8267849523763) translate(0 55.10850694444445)"/><path d="M1534.65 789.97h-342.82v-2h342.82zm474.68 0H1684v-2h325.33z"/><path d="M1191.86 789.97h-1.03v-2h1.03zM2024.6 788.97l-14.27 4.64v-9.26z"/><path d="M2027.83 788.97l-18.5 6v-12zm-16.5 3.26l10.03-3.26-10.03-3.26z"/><use xlink:href="#i" transform="matrix(1,0,0,1,1534.6545138888891,760.0833051802952) translate(0 10.6640625)"/><use xlink:href="#m" transform="matrix(1,0,0,1,1534.6545138888891,760.0833051802952) translate(0 38.216145833333336)"/><use xlink:href="#l" transform="matrix(1,0,0,1,1534.6545138888891,760.0833051802952) translate(0 55.10850694444445)"/><path d="M738.18 961H718.5v-2h19.68zm408.65 0H962.2v-2h184.63z"/><path d="M1147.83 961h-1.02v-2h1.03zM717.5 964.64L703.24 960l14.26-4.64z"/><path d="M718.5 966l-18.5-6 18.5-6zm-12.03-6l10.03 3.26v-6.52z"/><use xlink:href="#f" transform="matrix(1,0,0,1,738.177416630584,944.4444444444445) translate(0 24.882812500000004)"/><use xlink:href="#g" transform="matrix(1,0,0,1,738.177416630584,944.4444444444445) translate(112.01822916666669 24.882812500000004)"/><path d="M1169.33 437.5V401" stroke="#666" stroke-width="2" fill="none"/><path d="M1170.33 438.5h-2v-1.03h2zM1170.33 401.03h-2V400h2z" fill="#666"/><path d="M1609.33 402.5v75" stroke="#666" stroke-width="2" fill="none"/><path d="M1610.33 402.53h-2v-1.03h2zM1610.33 478.5h-2v-1.03h2z" fill="#666"/><path d="M2049.33 402.5v315" stroke="#666" stroke-width="2" fill="none"/><path d="M2050.33 402.53h-2v-1.03h2zM2050.33 718.5h-2v-1.03h2z" fill="#666"/><path d="M773.47 499h-68.13v-2h68.13zm355.86 0H904.16v-2h225.17zM1144.6 498l-14.27 4.64v-9.28z"/><path d="M1147.83 498l-18.5 6v-12zm-16.5 3.26l10.03-3.26-10.03-3.26zM705.36 499h-1.02v-2h1.02z"/><g><use xlink:href="#n" transform="matrix(1,0,0,1,773.4744101723093,482.4444444444444) translate(0 24.882812500000004)"/></g><path d="M1169.33 1042.5v55" stroke="#999" stroke-width="2" fill="none"/><path d="M1170.33 1042.53h-2v-1.03h2z" fill="#999"/><path d="M1169.33 1097.47v1.03" stroke="#999" stroke-width="2" fill="none"/><path d="M1610.33 1097.5h-2V922.6h2zm0-232.67h-2v-46.97h2zm0-104.75h-2V722.5h2z" fill="#999"/><path d="M1610.33 722.53h-2v-1.03h2zM1610.33 1098.5h-2v-1.03h2z" fill="#999"/><path d="M2049.33 962.5v135" stroke="#999" stroke-width="2" fill="none"/><path d="M2050.33 962.53h-2v-1.03h2z" fill="#999"/><path d="M2049.33 1097.47v1.03" stroke="#999" stroke-width="2" fill="none"/><defs><path d="M614-1226c-167 1-283 53-283 213 0 183 186 193 334 234 230 63 463 120 463 409 0 286-219 387-518 390C309 23 131-98 79-338l185-37c34 165 149 248 351 246 184-2 324-58 324-238 0-203-207-221-372-266-210-57-422-111-422-377 0-267 201-356 470-360 279-5 430 101 480 324l-188 33c-28-141-121-215-293-213" id="o"/><path d="M631 20c-350 0-501-215-501-562 0-355 162-560 502-560 250 0 399 118 446 323l-192 14c-23-124-109-196-262-196-242 0-305 171-305 415 1 245 61 427 304 427 151 0 248-77 267-215l190 12C1039-107 883 20 631 20" id="p"/><path d="M839-1102c70 0 148 7 206 17v167c-112-18-268-36-363 15-129 69-208 203-208 395V0H294c-10-367 32-789-52-1082h171c21 75 41 161 48 250h5c67-152 152-270 373-270" id="q"/><path d="M617-1102c355 0 481 238 477 599H322c5 222 84 388 301 388 144 0 244-59 284-166l158 45C1002-72 854 20 623 20c-342 0-490-220-490-568 0-346 151-554 484-554zm291 461c-18-192-90-328-289-328-194 0-287 128-295 328h584" id="r"/><path d="M706-1102c241 0 344 136 343 381V0H868v-695c1-168-57-273-220-268-190 6-283 138-283 336V0H185c-3-360 6-732-6-1082h170c4 54 7 126 8 185h3c63-121 164-204 346-205" id="s"/><g id="b"><use transform="matrix(0.01953125,0,0,0.01953125,0,0)" xlink:href="#o"/><use transform="matrix(0.01953125,0,0,0.01953125,24.00390625,0)" xlink:href="#p"/><use transform="matrix(0.01953125,0,0,0.01953125,48.0078125,0)" xlink:href="#q"/><use transform="matrix(0.01953125,0,0,0.01953125,72.01171875,0)" xlink:href="#r"/><use transform="matrix(0.01953125,0,0,0.01953125,96.015625,0)" xlink:href="#r"/><use transform="matrix(0.01953125,0,0,0.01953125,120.01953125,0)" xlink:href="#s"/></g><path d="M930-833l-67 317h260v108H840L752 0H642l86-408H365L281 0H171l84-408H54v-108h225l67-317H105v-108h263l89-408h110l-88 408h363l88-408h110l-88 408h211v108H930zm-471 0l-69 317h362l67-317H459" id="t"/><path d="M148-1120c216-7 379-89 463-229h166v1204h353V0H157v-145h439v-1021c-79 124-254 184-448 194v-148" id="u"/><g id="c"><use transform="matrix(0.01953125,0,0,0.01953125,0,0)" xlink:href="#t"/><use transform="matrix(0.01953125,0,0,0.01953125,24.00390625,0)" xlink:href="#u"/></g><path d="M385-1193v494h676v158H385V0H194v-1349h891v156H385" id="v"/><path d="M736-142h380V0H134v-142h422v-1200H267v-142h469v1342" id="w"/><path d="M615-1102c343 0 484 203 482 560-1 347-147 562-488 562-336 0-475-219-479-562-4-349 156-560 485-560zm-8 989c240 0 301-180 301-429 0-245-55-427-290-427-236 0-299 181-299 427 0 243 61 429 288 429" id="x"/><path d="M1018 0H814c-67-224-138-444-200-673C552-442 476-224 407 0H204L21-1082h178c43 310 105 601 126 933 54-225 128-425 193-638h193c63 212 134 415 185 638 22-336 90-622 136-933h176" id="y"/><g id="d"><use transform="matrix(0.032552083333333336,0,0,0.032552083333333336,0,0)" xlink:href="#v"/><use transform="matrix(0.032552083333333336,0,0,0.032552083333333336,40.00651041666667,0)" xlink:href="#w"/><use transform="matrix(0.032552083333333336,0,0,0.032552083333333336,80.01302083333334,0)" xlink:href="#x"/><use transform="matrix(0.032552083333333336,0,0,0.032552083333333336,120.01953125000001,0)" xlink:href="#y"/></g><path d="M611-1370c266 0 451 106 451 368 0 147-77 243-154 327-132 144-316 255-451 395-42 44-75 87-96 134h723V0H144v-117c124-264 387-411 582-603 73-72 151-147 151-271 0-161-104-231-266-231-163 0-249 90-268 238l-184-17c35-233 185-369 452-369" id="z"/><g id="e"><use transform="matrix(0.01953125,0,0,0.01953125,0,0)" xlink:href="#t"/><use transform="matrix(0.01953125,0,0,0.01953125,24.00390625,0)" xlink:href="#z"/></g><path d="M908-845H766l-40-639h224zm-449 0H318l-41-639h224" id="A"/><path d="M202-1349h823v156H709v1037h316V0H202v-156h316v-1037H202v-156" id="B"/><path d="M684-845H543l-41-639h224" id="C"/><path d="M904-1102c199 0 220 177 220 381V0H956v-686c-3-114 0-215-60-264-70-33-125-4-158 71-26 56-39 140-39 252V0H531v-686c-3-114-1-215-61-264-78-41-136 24-157 84-24 69-39 159-39 259V0H105c-3-360 6-732-6-1082h149c6 50 3 123 8 175 36-100 83-195 216-195 135 0 166 79 196 196 42-105 93-196 236-196" id="D"/><g id="f"><use transform="matrix(0.015190972222222224,0,0,0.015190972222222224,18.669704861111114,0)" xlink:href="#A"/><use transform="matrix(0.015190972222222224,0,0,0.015190972222222224,37.33940972222223,0)" xlink:href="#B"/><use transform="matrix(0.015190972222222224,0,0,0.015190972222222224,56.00911458333334,0)" xlink:href="#C"/><use transform="matrix(0.015190972222222224,0,0,0.015190972222222224,74.67881944444446,0)" xlink:href="#D"/></g><path d="M865-914c-3-187-2-380-2-570h180v1261c0 76 1 155 6 223H877c-8-49-9-116-10-174h-5C801-44 708 26 530 26c-135 0-234-46-297-139s-95-232-95-419c0-377 131-566 392-566 176 0 271 63 335 184zm-286-51c-222 0-255 197-255 427 0 229 31 425 253 425 237 0 286-195 286-441 0-238-52-411-284-411" id="E"/><g id="g"><use transform="matrix(0.015190972222222224,0,0,0.015190972222222224,0,0)" xlink:href="#E"/><use transform="matrix(0.015190972222222224,0,0,0.015190972222222224,18.669704861111114,0)" xlink:href="#x"/><use transform="matrix(0.015190972222222224,0,0,0.015190972222222224,37.33940972222223,0)" xlink:href="#s"/><use transform="matrix(0.015190972222222224,0,0,0.015190972222222224,56.00911458333334,0)" xlink:href="#r"/><use transform="matrix(0.015190972222222224,0,0,0.015190972222222224,74.67881944444446,0)" xlink:href="#A"/></g><path d="M1000-272c3 95 12 159 101 161 21 0 41-3 59-7V-6c-44 10-86 16-139 16-141 2-191-84-197-217h-6C748-76 648 20 446 20c-207 0-318-120-318-322 0-266 194-348 454-354l236-4c12-191-40-305-222-305-140 0-220 47-232 172l-188-17c33-204 181-292 423-292 255 0 401 118 401 364v466zm-683-27c0 109 63 184 175 182 166-3 259-96 306-217 24-65 20-120 20-200-232 7-501-28-501 235" id="F"/><path d="M682 16c-209 0-323-80-324-285v-671H190v-142h170l58-282h120v282h432v142H538v652c2 114 60 155 182 155 106 0 209-16 297-34v137C921-4 806 16 682 16" id="G"/><path d="M891-1484c-201 251-362 514-362 954 0 441 161 704 362 955H701C500 176 342-90 342-532c0-440 159-704 359-952h190" id="H"/><path d="M528-1484c201 248 357 511 357 952 0 442-156 709-357 957H336C537 174 700-89 700-530c0-440-163-703-364-954h192" id="I"/><g id="h"><use transform="matrix(0.015190972222222224,0,0,0.015190972222222224,18.669704861111114,0)" xlink:href="#p"/><use transform="matrix(0.015190972222222224,0,0,0.015190972222222224,37.33940972222223,0)" xlink:href="#q"/><use transform="matrix(0.015190972222222224,0,0,0.015190972222222224,56.00911458333334,0)" xlink:href="#r"/><use transform="matrix(0.015190972222222224,0,0,0.015190972222222224,74.67881944444446,0)" xlink:href="#F"/><use transform="matrix(0.015190972222222224,0,0,0.015190972222222224,93.34852430555557,0)" xlink:href="#G"/><use transform="matrix(0.015190972222222224,0,0,0.015190972222222224,112.01822916666669,0)" xlink:href="#r"/><use transform="matrix(0.015190972222222224,0,0,0.015190972222222224,130.6879340277778,0)" xlink:href="#H"/><use transform="matrix(0.015190972222222224,0,0,0.015190972222222224,149.3576388888889,0)" xlink:href="#I"/></g><g id="j"><use transform="matrix(0.015190972222222224,0,0,0.015190972222222224,18.669704861111114,0)" xlink:href="#A"/><use transform="matrix(0.015190972222222224,0,0,0.015190972222222224,37.33940972222223,0)" xlink:href="#B"/><use transform="matrix(0.015190972222222224,0,0,0.015190972222222224,56.00911458333334,0)" xlink:href="#C"/><use transform="matrix(0.015190972222222224,0,0,0.015190972222222224,74.67881944444446,0)" xlink:href="#D"/></g><g id="k"><use transform="matrix(0.015190972222222224,0,0,0.015190972222222224,0,0)" xlink:href="#E"/><use transform="matrix(0.015190972222222224,0,0,0.015190972222222224,18.669704861111114,0)" xlink:href="#x"/><use transform="matrix(0.015190972222222224,0,0,0.015190972222222224,37.33940972222223,0)" xlink:href="#s"/><use transform="matrix(0.015190972222222224,0,0,0.015190972222222224,56.00911458333334,0)" xlink:href="#r"/><use transform="matrix(0.015190972222222224,0,0,0.015190972222222224,74.67881944444446,0)" xlink:href="#A"/></g><path d="M698-1104c312 3 392 244 392 558 0 315-82 566-392 566-169 0-277-65-331-184h-5c8 188 2 394 4 589H185V-858c0-76-1-156-6-224h175c6 52 9 120 10 178h4c58-122 150-202 330-200zm-49 991c225 0 255-203 255-433 0-225-32-419-253-419-236 0-285 192-285 441 0 237 53 411 283 411" id="J"/><path d="M528 20c-247 0-343-132-343-381v-721h180v686c-4 177 45 284 224 277 194-8 279-136 279-336v-627h181c3 360-6 732 6 1082H885c-4-54-7-126-8-185h-3C809-64 714 20 528 20" id="K"/><path d="M873-819c-18-114-119-146-250-146-163 0-245 50-245 151 0 151 170 148 294 185 182 54 388 94 388 320 0 240-189 325-439 329-245 4-410-69-454-268l159-31c24 133 136 168 295 165 144-2 270-31 270-171 0-164-195-160-331-202-167-52-350-87-350-299 0-218 173-315 413-313 220 2 373 77 412 260" id="L"/><path d="M648-963c-190 6-283 138-283 336V0H185v-1484h181c-2 197 6 404-9 587h3c62-120 159-205 339-205 242 0 351 135 350 381V0H868v-695c1-168-57-273-220-268" id="M"/><g id="m"><use transform="matrix(0.015190972222222224,0,0,0.015190972222222224,18.669704861111114,0)" xlink:href="#J"/><use transform="matrix(0.015190972222222224,0,0,0.015190972222222224,37.33940972222223,0)" xlink:href="#K"/><use transform="matrix(0.015190972222222224,0,0,0.015190972222222224,56.00911458333334,0)" xlink:href="#L"/><use transform="matrix(0.015190972222222224,0,0,0.015190972222222224,74.67881944444446,0)" xlink:href="#M"/><use transform="matrix(0.015190972222222224,0,0,0.015190972222222224,93.34852430555557,0)" xlink:href="#H"/><use transform="matrix(0.015190972222222224,0,0,0.015190972222222224,112.01822916666669,0)" xlink:href="#I"/></g><g id="n"><use transform="matrix(0.015190972222222224,0,0,0.015190972222222224,18.669704861111114,0)" xlink:href="#L"/><use transform="matrix(0.015190972222222224,0,0,0.015190972222222224,37.33940972222223,0)" xlink:href="#G"/><use transform="matrix(0.015190972222222224,0,0,0.015190972222222224,56.00911458333334,0)" xlink:href="#F"/><use transform="matrix(0.015190972222222224,0,0,0.015190972222222224,74.67881944444446,0)" xlink:href="#q"/><use transform="matrix(0.015190972222222224,0,0,0.015190972222222224,93.34852430555557,0)" xlink:href="#G"/></g></defs></g></svg>