<svg xmlns="http://www.w3.org/2000/svg" xmlns:xlink="http://www.w3.org/1999/xlink" xmlns:lucid="lucid" width="1904.97" height="1264.71"><g transform="translate(-753.6924486901362 -40)" lucid:page-tab-id="hsr8u7PJ54Xm"><path d="M1020 65c0-2.76 2.24-5 5-5h288.67c2.76 0 5 2.24 5 5v330c0 2.76-2.24 5-5 5H1025c-2.76 0-5-2.24-5-5z" stroke="#666" stroke-width="3" fill="#f9faf4"/><use xlink:href="#a" transform="matrix(1,0,0,1,1025,65) translate(64.48697916666666 187.3828125)"/><path d="M1460 65c0-2.76 2.24-5 5-5h288.67c2.76 0 5 2.24 5 5v330c0 2.76-2.24 5-5 5H1465c-2.76 0-5-2.24-5-5z" stroke="#666" stroke-width="3" fill="#f5f7fc"/><use xlink:href="#b" transform="matrix(1,0,0,1,1465,65) translate(144.5 31.9921875)"/><use xlink:href="#c" transform="matrix(1,0,0,1,1465,65) translate(36.482421875 71.9921875)"/><use xlink:href="#d" transform="matrix(1,0,0,1,1465,65) translate(204.509765625 71.9921875)"/><path d="M1470.67 229.53c0-2.76 2.24-5 5-5H1583c2.76 0 5 2.24 5 5v107.33c0 2.77-2.24 5-5 5h-107.33c-2.76 0-5-2.23-5-5z" stroke="#666" stroke-width="3" fill="#f6f2f7"/><path d="M1630.67 229.53c0-2.76 2.24-5 5-5H1743c2.76 0 5 2.24 5 5v107.33c0 2.77-2.24 5-5 5h-107.33c-2.76 0-5-2.23-5-5z" stroke="#666" stroke-width="3" fill="#f1f7f5"/><path d="M1482.62 328.92c-.7 2.67.95 4.83 3.7 4.83h86c2.77 0 4.44-2.16 3.73-4.83l-6.64-24.9c-.7-2.66-3.52-4.82-6.28-4.82h-67.57c-2.76 0-5.58 2.16-6.3 4.83z" stroke="#666" stroke-width="3" fill="#f7f4f2"/><path d="M1529.36 222.03l.04-1.3.2-2.14.32-2.04.43-1.93.53-1.86.64-1.8.75-1.75.87-1.7.98-1.7 1.12-1.67 1.28-1.66 1.45-1.68 1.66-1.68 1.9-1.7 2.17-1.72 2.53-1.74 2.95-1.8 3.46-1.8 4.1-1.83 4.94-1.83 5.93-1.8 7.2-1.7 8.75-1.5 10.52-1.13 12.37-.58 3.25-.02 12.8.4 10.92 1 9.07 1.44 7.44 1.66 6.13 1.77 5.08 1.82 4.24 1.82 3.55 1.8 3.03 1.8 2.6 1.76 2.23 1.73 1.95 1.72 1.7 1.7 1.5 1.67 1.3 1.68 1.14 1.68" stroke="#666" stroke-width="2" fill="none"/><path d="M1530.36 222.04l-.03 1h-2l.04-1.07z" fill="#666"/><path d="M1688.46 219.92l-8.33-12.48 8.93-2.5z" stroke="#666" stroke-width="2" fill="#666"/><path d="M1689.3 344.36l-.04 1.35-.2 2.22-.34 2.1-.44 1.97-.55 1.9-.67 1.85-.77 1.8-.9 1.75-1.04 1.74-1.16 1.7-1.33 1.73-1.5 1.7-1.73 1.74-1.98 1.75-2.28 1.77-2.63 1.8-3.08 1.8-3.63 1.86-4.3 1.86-5.13 1.85-6.17 1.8-7.45 1.66-9 1.42-10.67 1.02-12.33.4h-.3l-12.3-.38-10.8-1-9.1-1.42-7.57-1.67-6.3-1.8-5.22-1.86-4.37-1.87-3.67-1.85-3.13-1.83-2.67-1.8-2.3-1.75-2-1.74-1.75-1.72-1.53-1.7-1.33-1.68-1.18-1.7-.12-.2" stroke="#666" stroke-width="2" fill="none"/><path d="M1690.3 344.42l-2-.06.03-1h2z" fill="#666"/><path d="M1530.22 346.48l8.35 12.46-8.92 2.53z" stroke="#666" stroke-width="2" fill="#666"/><path d="M1149.33 445c0-2.76 2.24-5 5-5h30c2.76 0 5 2.24 5 5v810c0 2.76-2.24 5-5 5h-30c-2.76 0-5-2.24-5-5z" stroke="#666" stroke-width="3" fill="#f9faf4"/><path d="M1589.33 485c0-2.76 2.24-5 5-5h30c2.76 0 5 2.24 5 5v230c0 2.76-2.24 5-5 5h-30c-2.76 0-5-2.24-5-5z" stroke="#666" stroke-width="3" fill="#f5f7fc"/><path d="M2029.33 725c0-2.76 2.24-5 5-5h30c2.76 0 5 2.24 5 5v230c0 2.76-2.24 5-5 5h-30c-2.76 0-5-2.24-5-5z" stroke="#666" stroke-width="3" fill="#f9faf4"/><path d="M1278.23 654h-67.07v-2h67.07zm308.6 0h-84.56v-2h84.56z"/><path d="M1587.83 654h-1.02v-2h1.03zM1210.16 657.64L1195.9 653l14.26-4.63z"/><path d="M1211.16 659.02l-18.5-6 18.5-6.03zm-12.03-6l10.03 3.25v-6.52z"/><use xlink:href="#e" transform="matrix(1,0,0,1,1278.228660802228,637.4510533676909) translate(0 24.882812500000004)"/><use xlink:href="#f" transform="matrix(1,0,0,1,1278.228660802228,637.4510533676909) translate(112.01822916666669 24.882812500000004)"/><path d="M1295.98 540.3h-104.15v-2h104.15zm273.35 0h-86.65v-2h86.65z"/><path d="M1191.86 540.3h-1.03v-2h1.03zM1584.6 539.3l-14.27 4.63v-9.27z"/><path d="M1587.83 539.3l-18.5 6v-12.02zm-16.5 3.25l10.03-3.26-10.03-3.27z"/><use xlink:href="#g" transform="matrix(1,0,0,1,1295.984809027797,523.7366551418665) translate(0 24.882812500000004)"/><path d="M1497.32 894.72h-287.98v-2h287.98zm529.5 0h-305.47v-2h305.48z"/><path d="M2027.83 894.72h-1.02v-2h1.03zM1208.34 898.35l-14.27-4.63 14.27-4.64z"/><path d="M1209.34 899.73l-18.5-6 18.5-6.03zm-12.03-6l10.04 3.24v-6.5z"/><use xlink:href="#h" transform="matrix(1,0,0,1,1497.3151041666667,864.8267849523764) translate(0 10.6640625)"/><use xlink:href="#i" transform="matrix(1,0,0,1,1497.3151041666667,864.8267849523764) translate(0 38.216145833333336)"/><use xlink:href="#j" transform="matrix(1,0,0,1,1497.3151041666667,864.8267849523764) translate(112.01822916666669 38.216145833333336)"/><use xlink:href="#k" transform="matrix(1,0,0,1,1497.3151041666667,864.8267849523764) translate(0 55.10850694444445)"/><path d="M1525.32 789.97h-333.5v-2h333.5zm484 0h-315.97v-2h315.98z"/><path d="M1191.86 789.97h-1.03v-2h1.03zM2024.6 788.97l-14.27 4.64v-9.26z"/><path d="M2027.83 788.97l-18.5 6v-12zm-16.5 3.26l10.03-3.26-10.03-3.26z"/><use xlink:href="#h" transform="matrix(1,0,0,1,1525.3196614583335,760.0833051802952) translate(0 10.6640625)"/><use xlink:href="#l" transform="matrix(1,0,0,1,1525.3196614583335,760.0833051802952) translate(0 38.216145833333336)"/><use xlink:href="#k" transform="matrix(1,0,0,1,1525.3196614583335,760.0833051802952) translate(0 55.10850694444445)"/><path d="M854.24 1192.5H803.2v-2h51.04zm292.6 0h-68.56v-2h68.55z"/><path d="M1147.83 1192.5h-1.02v-2h1.03zM802.2 1196.14l-14.27-4.63 14.26-4.63z"/><path d="M803.2 1197.52l-18.5-6 18.5-6.03zm-12.04-6l10.03 3.24v-6.5z"/><use xlink:href="#e" transform="matrix(1,0,0,1,854.2446618450681,1175.9501611501896) translate(0 24.882812500000004)"/><use xlink:href="#f" transform="matrix(1,0,0,1,854.2446618450681,1175.9501611501896) translate(112.01822916666669 24.882812500000004)"/><path d="M1169.33 437.5v-35" stroke="#666" stroke-width="2" fill="none"/><path d="M1170.33 438.5h-2v-1.03h2zM1170.33 402.53h-2v-1.03h2z" fill="#666"/><path d="M1609.33 402.5v75" stroke="#666" stroke-width="2" fill="none"/><path d="M1610.33 402.53h-2v-1.03h2zM1610.33 478.5h-2v-1.03h2z" fill="#666"/><path d="M2049.33 402.5v315M2049.33 402.53v-1.03" stroke="#666" stroke-width="2" fill="none"/><path d="M2050.33 718.5h-2v-1.03h2z" fill="#666"/><path d="M898.57 499H781v-2h117.57zm230.76 0h-100.07v-2h100.07zM1144.6 498l-14.27 4.64v-9.28z"/><path d="M1147.83 498l-18.5 6v-12zm-16.5 3.26l10.03-3.26-10.03-3.26zM781.03 499H780v-2h1.03z"/><use xlink:href="#m" transform="matrix(1,0,0,1,898.5726996527777,482.4444444444444) translate(0 24.882812500000004)"/><path d="M1169.33 1262.5v30.2" stroke="#999" stroke-width="2" fill="none"/><path d="M1170.33 1262.53h-2v-1.03h2z" fill="#999"/><path d="M1169.33 1292.68v1.03" stroke="#999" stroke-width="2" fill="none"/><path d="M1610.33 1292.7h-2V922.6h2zm0-427.87h-2v-46.97h2zm0-104.75h-2V722.5h2z" fill="#999"/><path d="M1610.33 722.53h-2v-1.03h2zM1610.33 1293.7h-2v-1.02h2z" fill="#999"/><path d="M2049.33 962.5v330.2" stroke="#999" stroke-width="2" fill="none"/><path d="M2050.33 962.53h-2v-1.03h2z" fill="#999"/><path d="M2049.33 1292.68v1.03" stroke="#999" stroke-width="2" fill="none"/><path d="M2409.36 222.03l.04-1.3.2-2.14.32-2.04.43-1.93.53-1.86.64-1.8.75-1.75.87-1.7.98-1.7 1.12-1.67 1.28-1.66 1.45-1.68 1.66-1.68 1.9-1.7 2.17-1.72 2.53-1.74 2.95-1.8 3.46-1.8 4.1-1.83 4.94-1.83 5.93-1.8 7.2-1.7 8.75-1.5 10.52-1.13 12.37-.58 3.25-.02 12.8.4 10.92 1 9.07 1.44 7.44 1.66 6.13 1.77 5.08 1.82 4.24 1.82 3.55 1.8 3.03 1.8 2.6 1.76 2.23 1.73 1.95 1.72 1.7 1.7 1.5 1.67 1.3 1.68 1.14 1.68" stroke="#666" stroke-width="2" fill="none"/><path d="M2410.36 222.04l-.03 1h-2l.04-1.07z" fill="#666"/><path d="M2568.46 219.92l-8.33-12.48 8.93-2.5z" stroke="#666" stroke-width="2" fill="#666"/><path d="M2569.3 344.36l-.04 1.35-.2 2.22-.34 2.1-.44 1.97-.55 1.9-.67 1.85-.77 1.8-.9 1.75-1.04 1.74-1.16 1.7-1.33 1.73-1.5 1.7-1.73 1.74-1.98 1.75-2.28 1.77-2.63 1.8-3.08 1.8-3.63 1.86-4.3 1.86-5.13 1.85-6.17 1.8-7.45 1.66-9 1.42-10.67 1.02-12.33.4h-.3l-12.3-.38-10.8-1-9.1-1.42-7.57-1.67-6.3-1.8-5.22-1.86-4.37-1.87-3.67-1.85-3.13-1.83-2.67-1.8-2.3-1.75-2-1.74-1.75-1.72-1.53-1.7-1.33-1.68-1.18-1.7-.12-.2" stroke="#666" stroke-width="2" fill="none"/><path d="M2570.3 344.42l-2-.06.03-1h2z" fill="#666"/><path d="M2410.22 346.48l8.35 12.46-8.92 2.53z" stroke="#666" stroke-width="2" fill="#666"/><path d="M2340 65c0-2.76 2.24-5 5-5h288.67c2.76 0 5 2.24 5 5v330c0 2.76-2.24 5-5 5H2345c-2.76 0-5-2.24-5-5z" stroke="#666" stroke-width="3" fill="#f5f7fc"/><use xlink:href="#b" transform="matrix(1,0,0,1,2345,65) translate(144.5 31.9921875)"/><use xlink:href="#c" transform="matrix(1,0,0,1,2345,65) translate(36.482421875 71.9921875)"/><use xlink:href="#n" transform="matrix(1,0,0,1,2345,65) translate(204.509765625 71.9921875)"/><path d="M2350.67 229.53c0-2.76 2.24-5 5-5H2463c2.76 0 5 2.24 5 5v107.33c0 2.77-2.24 5-5 5h-107.33c-2.76 0-5-2.23-5-5z" stroke="#666" stroke-width="3" fill="#f6f2f7"/><path d="M2510.67 229.53c0-2.76 2.24-5 5-5H2623c2.76 0 5 2.24 5 5v107.33c0 2.77-2.24 5-5 5h-107.33c-2.76 0-5-2.23-5-5z" stroke="#666" stroke-width="3" fill="#f1f7f5"/><path d="M2362.62 328.92c-.7 2.67.95 4.83 3.7 4.83h86c2.77 0 4.44-2.16 3.73-4.83l-6.64-24.9c-.7-2.66-3.52-4.82-6.28-4.82h-67.57c-2.76 0-5.58 2.16-6.3 4.83z" stroke="#666" stroke-width="3" fill="#f7f4f2"/><path d="M2489.33 402.5V680h1.34v277.5" stroke="#666" stroke-width="2" fill="none"/><path d="M2490.33 402.53h-2v-1.03h2zM2491.67 958.5h-2v-1.03h2z" fill="#666"/><path d="M2490.67 1202.5v90.2" stroke="#999" stroke-width="2" fill="none"/><path d="M2491.67 1202.53h-2v-1.03h2z" fill="#999"/><path d="M2490.67 1292.68v1.03" stroke="#999" stroke-width="2" fill="none"/><path d="M2470.67 965c0-2.76 2.24-5 5-5h30c2.76 0 5 2.24 5 5v230c0 2.76-2.24 5-5 5h-30c-2.76 0-5-2.24-5-5z" stroke="#666" stroke-width="3" fill="#f5f7fc"/><path d="M1900 65c0-2.76 2.24-5 5-5h288.67c2.76 0 5 2.24 5 5v330c0 2.76-2.24 5-5 5H1905c-2.76 0-5-2.24-5-5z" stroke="#666" stroke-width="3" fill="#f9faf4"/><use xlink:href="#o" transform="matrix(1,0,0,1,1905,65) translate(96.4921875 155.7421875)"/><use xlink:href="#p" transform="matrix(1,0,0,1,1905,65) translate(132.498046875 195.7421875)"/><path d="M1715.9 1133.37h-512.26v-2h512.25zm753.77 0h-529.75v-2h529.75z"/><path d="M2470.67 1133.37h-1.03v-2h1.03zM1202.64 1137l-14.26-4.63 14.26-4.63z"/><path d="M1203.64 1138.38l-18.5-6 18.5-6.02zm-12.03-6l10.04 3.25v-6.52z"/><g><use xlink:href="#h" transform="matrix(1,0,0,1,1715.8852129119814,1103.482850997152) translate(0 10.6640625)"/><use xlink:href="#i" transform="matrix(1,0,0,1,1715.8852129119814,1103.482850997152) translate(0 38.216145833333336)"/><use xlink:href="#j" transform="matrix(1,0,0,1,1715.8852129119814,1103.482850997152) translate(112.01822916666669 38.216145833333336)"/><use xlink:href="#k" transform="matrix(1,0,0,1,1715.8852129119814,1103.482850997152) translate(0 55.10850694444445)"/></g><path d="M1736.65 1028.63h-544.82v-2h544.82zm714 0h-527.3v-2h527.3z"/><path d="M1191.86 1028.63h-1.03v-2h1.03zM2465.93 1027.63l-14.27 4.63V1023z"/><path d="M2469.17 1027.63l-18.5 6v-12zm-16.5 3.26l10.02-3.27-10.04-3.26z"/><g><use xlink:href="#h" transform="matrix(1,0,0,1,1736.6514756944057,998.7393712250705) translate(0 10.6640625)"/><use xlink:href="#q" transform="matrix(1,0,0,1,1736.6514756944057,998.7393712250705) translate(0 38.216145833333336)"/><use xlink:href="#k" transform="matrix(1,0,0,1,1736.6514756944057,998.7393712250705) translate(0 55.10850694444445)"/></g><defs><path d="M385-1193v494h676v158H385V0H194v-1349h891v156H385" id="r"/><path d="M736-142h380V0H134v-142h422v-1200H267v-142h469v1342" id="s"/><path d="M615-1102c343 0 484 203 482 560-1 347-147 562-488 562-336 0-475-219-479-562-4-349 156-560 485-560zm-8 989c240 0 301-180 301-429 0-245-55-427-290-427-236 0-299 181-299 427 0 243 61 429 288 429" id="t"/><path d="M1018 0H814c-67-224-138-444-200-673C552-442 476-224 407 0H204L21-1082h178c43 310 105 601 126 933 54-225 128-425 193-638h193c63 212 134 415 185 638 22-336 90-622 136-933h176" id="u"/><g id="a"><use transform="matrix(0.032552083333333336,0,0,0.032552083333333336,0,0)" xlink:href="#r"/><use transform="matrix(0.032552083333333336,0,0,0.032552083333333336,40.00651041666667,0)" xlink:href="#s"/><use transform="matrix(0.032552083333333336,0,0,0.032552083333333336,80.01302083333334,0)" xlink:href="#t"/><use transform="matrix(0.032552083333333336,0,0,0.032552083333333336,120.01953125000001,0)" xlink:href="#u"/></g><path d="M614-1226c-167 1-283 53-283 213 0 183 186 193 334 234 230 63 463 120 463 409 0 286-219 387-518 390C309 23 131-98 79-338l185-37c34 165 149 248 351 246 184-2 324-58 324-238 0-203-207-221-372-266-210-57-422-111-422-377 0-267 201-356 470-360 279-5 430 101 480 324l-188 33c-28-141-121-215-293-213" id="v"/><path d="M631 20c-350 0-501-215-501-562 0-355 162-560 502-560 250 0 399 118 446 323l-192 14c-23-124-109-196-262-196-242 0-305 171-305 415 1 245 61 427 304 427 151 0 248-77 267-215l190 12C1039-107 883 20 631 20" id="w"/><path d="M839-1102c70 0 148 7 206 17v167c-112-18-268-36-363 15-129 69-208 203-208 395V0H294c-10-367 32-789-52-1082h171c21 75 41 161 48 250h5c67-152 152-270 373-270" id="x"/><path d="M617-1102c355 0 481 238 477 599H322c5 222 84 388 301 388 144 0 244-59 284-166l158 45C1002-72 854 20 623 20c-342 0-490-220-490-568 0-346 151-554 484-554zm291 461c-18-192-90-328-289-328-194 0-287 128-295 328h584" id="y"/><path d="M706-1102c241 0 344 136 343 381V0H868v-695c1-168-57-273-220-268-190 6-283 138-283 336V0H185c-3-360 6-732-6-1082h170c4 54 7 126 8 185h3c63-121 164-204 346-205" id="z"/><g id="c"><use transform="matrix(0.01953125,0,0,0.01953125,0,0)" xlink:href="#v"/><use transform="matrix(0.01953125,0,0,0.01953125,24.00390625,0)" xlink:href="#w"/><use transform="matrix(0.01953125,0,0,0.01953125,48.0078125,0)" xlink:href="#x"/><use transform="matrix(0.01953125,0,0,0.01953125,72.01171875,0)" xlink:href="#y"/><use transform="matrix(0.01953125,0,0,0.01953125,96.015625,0)" xlink:href="#y"/><use transform="matrix(0.01953125,0,0,0.01953125,120.01953125,0)" xlink:href="#z"/></g><path d="M930-833l-67 317h260v108H840L752 0H642l86-408H365L281 0H171l84-408H54v-108h225l67-317H105v-108h263l89-408h110l-88 408h363l88-408h110l-88 408h211v108H930zm-471 0l-69 317h362l67-317H459" id="A"/><path d="M148-1120c216-7 379-89 463-229h166v1204h353V0H157v-145h439v-1021c-79 124-254 184-448 194v-148" id="B"/><g id="d"><use transform="matrix(0.01953125,0,0,0.01953125,0,0)" xlink:href="#A"/><use transform="matrix(0.01953125,0,0,0.01953125,24.00390625,0)" xlink:href="#B"/></g><path d="M908-845H766l-40-639h224zm-449 0H318l-41-639h224" id="C"/><path d="M202-1349h823v156H709v1037h316V0H202v-156h316v-1037H202v-156" id="D"/><path d="M684-845H543l-41-639h224" id="E"/><path d="M904-1102c199 0 220 177 220 381V0H956v-686c-3-114 0-215-60-264-70-33-125-4-158 71-26 56-39 140-39 252V0H531v-686c-3-114-1-215-61-264-78-41-136 24-157 84-24 69-39 159-39 259V0H105c-3-360 6-732-6-1082h149c6 50 3 123 8 175 36-100 83-195 216-195 135 0 166 79 196 196 42-105 93-196 236-196" id="F"/><g id="e"><use transform="matrix(0.015190972222222224,0,0,0.015190972222222224,18.669704861111114,0)" xlink:href="#C"/><use transform="matrix(0.015190972222222224,0,0,0.015190972222222224,37.33940972222223,0)" xlink:href="#D"/><use transform="matrix(0.015190972222222224,0,0,0.015190972222222224,56.00911458333334,0)" xlink:href="#E"/><use transform="matrix(0.015190972222222224,0,0,0.015190972222222224,74.67881944444446,0)" xlink:href="#F"/></g><path d="M865-914c-3-187-2-380-2-570h180v1261c0 76 1 155 6 223H877c-8-49-9-116-10-174h-5C801-44 708 26 530 26c-135 0-234-46-297-139s-95-232-95-419c0-377 131-566 392-566 176 0 271 63 335 184zm-286-51c-222 0-255 197-255 427 0 229 31 425 253 425 237 0 286-195 286-441 0-238-52-411-284-411" id="G"/><g id="f"><use transform="matrix(0.015190972222222224,0,0,0.015190972222222224,0,0)" xlink:href="#G"/><use transform="matrix(0.015190972222222224,0,0,0.015190972222222224,18.669704861111114,0)" xlink:href="#t"/><use transform="matrix(0.015190972222222224,0,0,0.015190972222222224,37.33940972222223,0)" xlink:href="#z"/><use transform="matrix(0.015190972222222224,0,0,0.015190972222222224,56.00911458333334,0)" xlink:href="#y"/><use transform="matrix(0.015190972222222224,0,0,0.015190972222222224,74.67881944444446,0)" xlink:href="#C"/></g><path d="M1000-272c3 95 12 159 101 161 21 0 41-3 59-7V-6c-44 10-86 16-139 16-141 2-191-84-197-217h-6C748-76 648 20 446 20c-207 0-318-120-318-322 0-266 194-348 454-354l236-4c12-191-40-305-222-305-140 0-220 47-232 172l-188-17c33-204 181-292 423-292 255 0 401 118 401 364v466zm-683-27c0 109 63 184 175 182 166-3 259-96 306-217 24-65 20-120 20-200-232 7-501-28-501 235" id="H"/><path d="M682 16c-209 0-323-80-324-285v-671H190v-142h170l58-282h120v282h432v142H538v652c2 114 60 155 182 155 106 0 209-16 297-34v137C921-4 806 16 682 16" id="I"/><path d="M891-1484c-201 251-362 514-362 954 0 441 161 704 362 955H701C500 176 342-90 342-532c0-440 159-704 359-952h190" id="J"/><path d="M528-1484c201 248 357 511 357 952 0 442-156 709-357 957H336C537 174 700-89 700-530c0-440-163-703-364-954h192" id="K"/><g id="g"><use transform="matrix(0.015190972222222224,0,0,0.015190972222222224,18.669704861111114,0)" xlink:href="#w"/><use transform="matrix(0.015190972222222224,0,0,0.015190972222222224,37.33940972222223,0)" xlink:href="#x"/><use transform="matrix(0.015190972222222224,0,0,0.015190972222222224,56.00911458333334,0)" xlink:href="#y"/><use transform="matrix(0.015190972222222224,0,0,0.015190972222222224,74.67881944444446,0)" xlink:href="#H"/><use transform="matrix(0.015190972222222224,0,0,0.015190972222222224,93.34852430555557,0)" xlink:href="#I"/><use transform="matrix(0.015190972222222224,0,0,0.015190972222222224,112.01822916666669,0)" xlink:href="#y"/><use transform="matrix(0.015190972222222224,0,0,0.015190972222222224,130.6879340277778,0)" xlink:href="#J"/><use transform="matrix(0.015190972222222224,0,0,0.015190972222222224,149.3576388888889,0)" xlink:href="#K"/></g><g id="i"><use transform="matrix(0.015190972222222224,0,0,0.015190972222222224,18.669704861111114,0)" xlink:href="#C"/><use transform="matrix(0.015190972222222224,0,0,0.015190972222222224,37.33940972222223,0)" xlink:href="#D"/><use transform="matrix(0.015190972222222224,0,0,0.015190972222222224,56.00911458333334,0)" xlink:href="#E"/><use transform="matrix(0.015190972222222224,0,0,0.015190972222222224,74.67881944444446,0)" xlink:href="#F"/></g><g id="j"><use transform="matrix(0.015190972222222224,0,0,0.015190972222222224,0,0)" xlink:href="#G"/><use transform="matrix(0.015190972222222224,0,0,0.015190972222222224,18.669704861111114,0)" xlink:href="#t"/><use transform="matrix(0.015190972222222224,0,0,0.015190972222222224,37.33940972222223,0)" xlink:href="#z"/><use transform="matrix(0.015190972222222224,0,0,0.015190972222222224,56.00911458333334,0)" xlink:href="#y"/><use transform="matrix(0.015190972222222224,0,0,0.015190972222222224,74.67881944444446,0)" xlink:href="#C"/></g><path d="M873-819c-18-114-119-146-250-146-163 0-245 50-245 151 0 151 170 148 294 185 182 54 388 94 388 320 0 240-189 325-439 329-245 4-410-69-454-268l159-31c24 133 136 168 295 165 144-2 270-31 270-171 0-164-195-160-331-202-167-52-350-87-350-299 0-218 173-315 413-313 220 2 373 77 412 260" id="L"/><g id="l"><use transform="matrix(0.015190972222222224,0,0,0.015190972222222224,18.669704861111114,0)" xlink:href="#L"/><use transform="matrix(0.015190972222222224,0,0,0.015190972222222224,37.33940972222223,0)" xlink:href="#I"/><use transform="matrix(0.015190972222222224,0,0,0.015190972222222224,56.00911458333334,0)" xlink:href="#H"/><use transform="matrix(0.015190972222222224,0,0,0.015190972222222224,74.67881944444446,0)" xlink:href="#x"/><use transform="matrix(0.015190972222222224,0,0,0.015190972222222224,93.34852430555557,0)" xlink:href="#I"/><use transform="matrix(0.015190972222222224,0,0,0.015190972222222224,112.01822916666669,0)" xlink:href="#J"/><use transform="matrix(0.015190972222222224,0,0,0.015190972222222224,130.6879340277778,0)" xlink:href="#K"/></g><g id="m"><use transform="matrix(0.015190972222222224,0,0,0.015190972222222224,18.669704861111114,0)" xlink:href="#L"/><use transform="matrix(0.015190972222222224,0,0,0.015190972222222224,37.33940972222223,0)" xlink:href="#I"/><use transform="matrix(0.015190972222222224,0,0,0.015190972222222224,56.00911458333334,0)" xlink:href="#H"/><use transform="matrix(0.015190972222222224,0,0,0.015190972222222224,74.67881944444446,0)" xlink:href="#x"/><use transform="matrix(0.015190972222222224,0,0,0.015190972222222224,93.34852430555557,0)" xlink:href="#I"/></g><path d="M611-1370c266 0 451 106 451 368 0 147-77 243-154 327-132 144-316 255-451 395-42 44-75 87-96 134h723V0H144v-117c124-264 387-411 582-603 73-72 151-147 151-271 0-161-104-231-266-231-163 0-249 90-268 238l-184-17c35-233 185-369 452-369" id="M"/><g id="n"><use transform="matrix(0.01953125,0,0,0.01953125,0,0)" xlink:href="#A"/><use transform="matrix(0.01953125,0,0,0.01953125,24.00390625,0)" xlink:href="#M"/></g><g id="o"><use transform="matrix(0.01953125,0,0,0.01953125,0,0)" xlink:href="#r"/><use transform="matrix(0.01953125,0,0,0.01953125,24.00390625,0)" xlink:href="#s"/><use transform="matrix(0.01953125,0,0,0.01953125,48.0078125,0)" xlink:href="#t"/><use transform="matrix(0.01953125,0,0,0.01953125,72.01171875,0)" xlink:href="#u"/></g><path d="M802-711c201 25 350 118 350 331C1152-95 921 0 634 0H162v-1349c401 9 908-74 908 327 0 184-111 275-268 311zm-224-69c174-2 300-51 300-218 0-163-124-198-302-198H353v416h225zM353-153c281-2 612 44 606-244-5-271-329-233-606-234v478" id="N"/><use transform="matrix(0.01953125,0,0,0.01953125,0,0)" xlink:href="#N" id="p"/><g id="q"><use transform="matrix(0.015190972222222224,0,0,0.015190972222222224,18.669704861111114,0)" xlink:href="#w"/><use transform="matrix(0.015190972222222224,0,0,0.015190972222222224,37.33940972222223,0)" xlink:href="#x"/><use transform="matrix(0.015190972222222224,0,0,0.015190972222222224,56.00911458333334,0)" xlink:href="#y"/><use transform="matrix(0.015190972222222224,0,0,0.015190972222222224,74.67881944444446,0)" xlink:href="#H"/><use transform="matrix(0.015190972222222224,0,0,0.015190972222222224,93.34852430555557,0)" xlink:href="#I"/><use transform="matrix(0.015190972222222224,0,0,0.015190972222222224,112.01822916666669,0)" xlink:href="#y"/><use transform="matrix(0.015190972222222224,0,0,0.015190972222222224,130.6879340277778,0)" xlink:href="#J"/><use transform="matrix(0.015190972222222224,0,0,0.015190972222222224,149.3576388888889,0)" xlink:href="#K"/></g></defs></g></svg>