<svg enable-background="new 0 0 545 261.9" viewBox="0 0 545 261.9" xmlns="http://www.w3.org/2000/svg"><g fill="#000a8b"><path d="m80.4 24.4-17 96.6h44.4s.2 4.9 2.4 11.7c2.3 7.5 7.6 13.9 7.6 13.9h-89.7l21.6-122.2z"/><path d="m114.7 110.9c0-15 3.8-28.7 10.6-39.2 7.9-12.4 19.9-19.9 34-19.9 13.9 0 22.9 7.9 25.4 17l7.7-14.8h24.3l-11.5 65.7c-.2 1.1-.4 2.2-.4 3.1 0 2.7 1.1 4.6 4.2 4.6l2 17.4c-3.7 2-9.5 3.3-15.4 3.3-12.6 0-20.5-7.1-20.5-17.6 0-.7 0-1.5.2-2.2-5.7 13.5-16.5 20.5-29.1 20.5-18.8 0-31.5-15.6-31.5-37.9zm63.2-6.2c1.5-7.5 2.4-14.1 2.4-16.8 0-7.7-4.2-14.1-13.4-14.1-7.1 0-12.6 4.6-16.5 11.7-3.1 6-4.8 13.9-4.8 22.7 0 10.8 5.1 17.2 13.9 17.2 9.6 0 15.8-8.1 18.4-20.7z"/><path d="m239.4 116c.7 8.2 6.8 13.2 15.4 13.2 6.6 0 11.5-3.1 11.5-9.3 0-13.9-42.8-6-42.8-35.7 0-19.6 17-32.4 39.5-32.4 25.3 0 38.6 11.7 38.6 29.5l-25.6 1.6c0-6.8-4.2-11.7-12.6-11.7-6.8 0-11.2 3.3-11.2 8.6 0 13.4 43.9 6.8 43.9 35.5 0 20.7-18.1 33.5-41.9 33.5-21.8 0-40.1-10.2-41.7-29.1z"/><path d="m324.4 116c.7 8.2 6.8 13.2 15.4 13.2 6.6 0 11.5-3.1 11.5-9.3 0-13.9-42.8-6-42.8-35.7 0-19.6 17-32.4 39.5-32.4 25.3 0 38.6 11.7 38.6 29.5l-25.6 1.6c0-6.8-4.2-11.7-12.6-11.7-6.8 0-11.2 3.3-11.2 8.6 0 13.4 43.9 6.8 43.9 35.5 0 20.7-18.1 33.5-41.9 33.5-21.8 0-40.1-10.2-41.7-29.1z"/><path d="m477.5 91.9c0 13-3.1 25.1-9.3 34.6-8.6 13.7-22.5 22.3-41.7 22.3-24.3 0-41.4-14.8-41.4-40.3 0-13 3.1-25.1 9.2-34.6 8.8-13.5 22.5-22.1 41.9-22.1 24.1 0 41.3 14.8 41.3 40.1zm-34.6 23.8c3.5-6.6 5.1-15.7 5.1-23.2 0-11-4-18.7-13.4-18.7-7 0-11.7 4.8-15.2 11.2-3.3 6.6-4.9 15.7-4.9 23.2 0 11 3.8 18.5 13.2 18.5 7.1-.1 11.7-4.6 15.2-11z"/><path d="m351 229.6v-34.6h-13.8v-9.2h38.7v9.2h-13.8v34.6z"/><path d="m394.8 218.1 8.8 3c-2 6.4-8 9.2-14.4 9.2-10 0-16.4-6.4-16.4-17 0-10.8 6.3-17.7 16.7-17.7 9.7 0 14.4 6.7 14.4 14.9 0 1.4-.3 3.3-.6 4.4h-20.1c.1 4.7 2.6 7.5 6.2 7.5 2.6 0 4.5-1.3 5.4-4.3zm-1.1-8.3c.1-.5.1-1 .1-1.5 0-2.7-1.6-5.1-4.7-5.1-3.3 0-5.6 2.5-5.9 6.6z"/><path d="m422.4 195.6c8.3 0 13.5 4.5 14.2 11.3l-9.3 2c-.3-3-1.6-5.4-4.7-5.4-4 0-5.8 3.8-5.8 9.4 0 6 1.9 9.4 5.8 9.4 2.7 0 4.5-2 4.8-5.3l9.4 2.9c-1.2 6.5-6.7 10.4-14.1 10.4-10.1 0-16.6-6.6-16.6-17.4 0-10.7 6.5-17.3 16.3-17.3z"/><path d="m451 202.3c1.8-4.3 5.6-6.7 10.4-6.7 6 0 10.4 3.7 10.4 10.8v23.2h-10.8v-19.7c0-3.3-1.2-5.2-4.3-5.2-3 0-5.6 2-5.6 7v18h-10.8v-47.3h10.7z"/></g><path d="m244.6 158.3h96.6v96.6h-96.6z" fill="none"/><path d="m329.1 206.5c0-20-16.2-36.2-36.2-36.2s-36.2 16.2-36.2 36.2 16.2 36.2 36.2 36.2c20 .1 36.2-16.2 36.2-36.2zm-25.4 1.4h7.1l-7.1 24.1h-7.4l-3.3-14.8h-.1l-3.3 14.8h-7.4l-7.1-24.1h7.1l-7.1-24.1h7.6l3.4 15.6h.1l3.6-15.6h6.5l3.6 15.6h.1l3.4-15.6h7.6zm-3.9 15.6 3.4-15.6h-7l-3.3-14.8h-.1l-3.3 14.8h-7l3.4 15.6h.1l3.6-15.6h6.5z" fill="#000a8b"/><path d="m480 97.5c-.6 0-1.1 0-1.7 0-15.9-.6-24.8-10.2-31.3-17.1-6.2-6.7 12.1-24.3 18.6-17.4 5.4 5.8 8.5 8.9 13.8 9.1 2.3.1 7.6.3 12.3-8.6 3.3-6.2 2.3-4.6 2.3-4.6s6.9 1.6 12.5.9c9.1-1.2 14.5-4.4 14.5-4.4-2.1 15.3-13 42.1-41 42.1z" fill="#000a8b"/></svg>