<svg xmlns="http://www.w3.org/2000/svg" xmlns:xlink="http://www.w3.org/1999/xlink" xmlns:lucid="lucid" width="943" height="680"><g transform="translate(-80 -80)" lucid:page-tab-id="HyrcRZEL7jp-"><path d="M280 125c0-2.76 2.24-5 5-5h550c2.76 0 5 2.24 5 5v590c0 2.76-2.24 5-5 5H285c-2.76 0-5-2.24-5-5z" stroke="#666" stroke-width="3" fill="#f5f7fc"/><use xlink:href="#a" transform="matrix(1,0,0,1,285,125) translate(275 24.882812500000004)"/><use xlink:href="#b" transform="matrix(1,0,0,1,285,125) translate(218.99088541666666 55.993923611111114)"/><path d="M300 376.44c0-2.76 2.24-5 5-5h210c2.76 0 5 2.24 5 5v210c0 2.76-2.24 5-5 5H305c-2.76 0-5-2.24-5-5z" stroke="#666" stroke-width="3" fill="#f6f2f7"/><use xlink:href="#c" transform="matrix(1,0,0,1,305,376.43867493470236) translate(105 21.328125)"/><use xlink:href="#d" transform="matrix(1,0,0,1,305,376.43867493470236) translate(105 47.99479166666667)"/><use xlink:href="#e" transform="matrix(1,0,0,1,305,376.43867493470236) translate(64.99348958333333 74.66145833333334)"/><path d="M600 376.44c0-2.76 2.24-5 5-5h210c2.76 0 5 2.24 5 5v210c0 2.76-2.24 5-5 5H605c-2.76 0-5-2.24-5-5z" stroke="#666" stroke-width="3" fill="#f1f7f5"/><use xlink:href="#f" transform="matrix(1,0,0,1,605,376.43867493470236) translate(105 21.328125)"/><use xlink:href="#g" transform="matrix(1,0,0,1,605,376.43867493470236) translate(105 47.99479166666667)"/><use xlink:href="#h" transform="matrix(1,0,0,1,605,376.43867493470236) translate(72.99479166666666 74.66145833333334)"/><path d="M321.3 571.4c-.72 2.67.94 4.83 3.7 4.83h170c2.76 0 4.42-2.16 3.7-4.83L484 516.27c-.7-2.67-3.52-4.83-6.28-4.83H342.28c-2.76 0-5.58 2.16-6.3 4.83z" stroke="#666" stroke-width="3" fill="#f7f4f2"/><use xlink:href="#i" transform="matrix(1,0,0,1,325,516.4386749347024) translate(44.998489583333324 35.078125)"/><path d="M483.8 292.23l-7.33 2.55-6.65 2.63-6.02 2.7-5.44 2.7-4.92 2.7-4.45 2.68-4.03 2.67-3.65 2.65-3.3 2.62-3 2.58-2.73 2.56-2.48 2.53-2.26 2.5-2.06 2.48-1.87 2.47-1.7 2.46-1.56 2.45-1.4 2.44-1.3 2.44-1.14 2.45-1.04 2.46-.94 2.48-.8 2.5-.72 2.56-.6 2.6-.5 2.62-.4 2.7-.3 2.75-.18 2.84-.04 1.96-2-.05.04-1.97.2-2.92.3-2.84.4-2.77.5-2.73.64-2.67.73-2.62.84-2.6.96-2.56 1.07-2.54 1.2-2.53 1.3-2.52 1.46-2.52 1.6-2.5 1.75-2.53 1.93-2.53 2.1-2.55 2.33-2.58 2.54-2.6 2.78-2.6 3.07-2.65 3.36-2.67 3.73-2.7 4.1-2.7 4.5-2.74 5-2.75 5.52-2.72 6.1-2.72 6.73-2.66 5.15-1.8h6.57zm160.44.68l6.73 2.67 6.1 2.7 5.5 2.75 5 2.74 4.52 2.74 4.08 2.72 3.7 2.7 3.38 2.66 3.06 2.64 2.8 2.62 2.53 2.6 2.3 2.56 2.12 2.55 1.93 2.53 1.75 2.52 1.6 2.52 1.45 2.52 1.32 2.5 1.2 2.54 1.05 2.55.96 2.56.84 2.58.28 1.02-1.92.54-.28-.98-.8-2.5-.94-2.5-1.02-2.46-1.16-2.46-1.27-2.44-1.4-2.44-1.57-2.45-1.7-2.44-1.88-2.47-2.05-2.5-2.26-2.5-2.5-2.53-2.7-2.56-3-2.58-3.32-2.62-3.64-2.64-4.02-2.67-4.45-2.7-4.92-2.7-5.44-2.7-6-2.7-6.66-2.62-7.33-2.55-3.7-1.12h6.58z" fill="#666"/><path d="M411.02 368.93l-.02 1h-2l.02-1.04zM709.56 366.73l-6.53-13.5 9.18-1.26z" fill="#666"/><path d="M710 369.94l-8.47-17.5 11.9-1.65zm-5.47-15.9l4.6 9.5 1.85-10.4z" fill="#666"/><use xlink:href="#j" transform="matrix(1,0,0,1,466.6532737510903,268.88918217159346) translate(0 17.7734375)"/><use xlink:href="#k" transform="matrix(1,0,0,1,466.6532737510903,268.88918217159346) translate(93.34852430555557 17.7734375)"/><path d="M710.98 593.96l-.04 2-.2 2.9-.3 2.86-.4 2.77-.5 2.7-.64 2.68-.73 2.62-.84 2.6-.96 2.56-1.07 2.54-1.2 2.53-1.3 2.52-1.46 2.5-1.6 2.53-1.75 2.52-1.93 2.54-2.1 2.55-2.33 2.55-2.54 2.6-2.78 2.6-3.07 2.65-3.36 2.67-3.73 2.7-4.1 2.72-4.5 2.72-5 2.74-5.52 2.74-6.1 2.7-6.73 2.68-7.4 2.57-8.13 2.45-8.88 2.28-6.48 1.37v-2.04l6.02-1.27 8.8-2.25 8.04-2.43 7.33-2.55 6.65-2.63 6.02-2.68 5.44-2.7 4.92-2.7 4.45-2.7 4.03-2.67 3.65-2.65 3.3-2.62 3-2.6 2.73-2.54 2.48-2.54 2.26-2.5 2.06-2.5 1.87-2.45 1.7-2.46 1.56-2.44 1.4-2.45 1.3-2.44 1.14-2.45 1.04-2.48.94-2.48.8-2.52.72-2.54.6-2.6.5-2.62.4-2.7.3-2.76.18-2.83.04-1.95zm-297.23 17.96l.8 2.5.94 2.5 1.02 2.46 1.16 2.45 1.27 2.45 1.4 2.44 1.57 2.45 1.7 2.45 1.88 2.47 2.05 2.47 2.26 2.5 2.5 2.54 2.7 2.57 3 2.6 3.32 2.6 3.64 2.65 4.02 2.67 4.45 2.68 4.92 2.7 5.44 2.7 6 2.68 6.66 2.63 7.33 2.54 8.03 2.43 8.8 2.26 6.03 1.28v2.05l-6.5-1.38-8.87-2.27-8.13-2.45-7.4-2.58-6.74-2.66-6.1-2.7-5.5-2.74-5-2.74-4.52-2.74-4.08-2.72-3.7-2.7-3.38-2.66-3.06-2.65-2.8-2.6-2.53-2.6-2.3-2.57-2.12-2.55-1.93-2.53-1.75-2.53-1.6-2.5-1.45-2.53-1.32-2.52-1.2-2.53-1.05-2.55-.96-2.56-.84-2.6-.28-1.02 1.92-.54z" fill="#666"/><path d="M710.98 594l-2-.05.02-1h2zM416.97 609.65l-9.18 1.26 2.64-14.76z" fill="#666"/><path d="M418.47 610.45l-11.9 1.64 3.43-19.16zm-9.45-.72l6.45-.9-4.6-9.48z" fill="#666"/><use xlink:href="#l" transform="matrix(1,0,0,1,506.65618805446536,671.7659454755891) translate(0 17.7734375)"/><path d="M163.54 421H138.5v-2h25.04zm113.96 0h-17.94v-2h17.94z"/><path d="M278.5 421h-1.03v-2h1.03zM137.5 424.64L123.24 420l14.26-4.64z"/><path d="M138.5 426l-18.5-6 18.5-6zm-12.03-6l10.03 3.26v-6.52z"/><g><use xlink:href="#m" transform="matrix(1,0,0,1,163.5445340703971,408.8888888888889) translate(0 17.7734375)"/></g><defs><path d="M614-1226c-167 1-283 53-283 213 0 183 186 193 334 234 230 63 463 120 463 409 0 286-219 387-518 390C309 23 131-98 79-338l185-37c34 165 149 248 351 246 184-2 324-58 324-238 0-203-207-221-372-266-210-57-422-111-422-377 0-267 201-356 470-360 279-5 430 101 480 324l-188 33c-28-141-121-215-293-213" id="n"/><path d="M631 20c-350 0-501-215-501-562 0-355 162-560 502-560 250 0 399 118 446 323l-192 14c-23-124-109-196-262-196-242 0-305 171-305 415 1 245 61 427 304 427 151 0 248-77 267-215l190 12C1039-107 883 20 631 20" id="o"/><path d="M839-1102c70 0 148 7 206 17v167c-112-18-268-36-363 15-129 69-208 203-208 395V0H294c-10-367 32-789-52-1082h171c21 75 41 161 48 250h5c67-152 152-270 373-270" id="p"/><path d="M617-1102c355 0 481 238 477 599H322c5 222 84 388 301 388 144 0 244-59 284-166l158 45C1002-72 854 20 623 20c-342 0-490-220-490-568 0-346 151-554 484-554zm291 461c-18-192-90-328-289-328-194 0-287 128-295 328h584" id="q"/><path d="M706-1102c241 0 344 136 343 381V0H868v-695c1-168-57-273-220-268-190 6-283 138-283 336V0H185c-3-360 6-732-6-1082h170c4 54 7 126 8 185h3c63-121 164-204 346-205" id="r"/><g id="b"><use transform="matrix(0.015190972222222224,0,0,0.015190972222222224,0,0)" xlink:href="#n"/><use transform="matrix(0.015190972222222224,0,0,0.015190972222222224,18.669704861111114,0)" xlink:href="#o"/><use transform="matrix(0.015190972222222224,0,0,0.015190972222222224,37.33940972222223,0)" xlink:href="#p"/><use transform="matrix(0.015190972222222224,0,0,0.015190972222222224,56.00911458333334,0)" xlink:href="#q"/><use transform="matrix(0.015190972222222224,0,0,0.015190972222222224,74.67881944444446,0)" xlink:href="#q"/><use transform="matrix(0.015190972222222224,0,0,0.015190972222222224,93.34852430555557,0)" xlink:href="#r"/></g><path d="M682 16c-209 0-323-80-324-285v-671H190v-142h170l58-282h120v282h432v142H538v652c2 114 60 155 182 155 106 0 209-16 297-34v137C921-4 806 16 682 16" id="s"/><path d="M615-1102c343 0 484 203 482 560-1 347-147 562-488 562-336 0-475-219-479-562-4-349 156-560 485-560zm-8 989c240 0 301-180 301-429 0-245-55-427-290-427-236 0-299 181-299 427 0 243 61 429 288 429" id="t"/><g id="e"><use transform="matrix(0.013020833333333334,0,0,0.013020833333333334,0,0)" xlink:href="#n"/><use transform="matrix(0.013020833333333334,0,0,0.013020833333333334,16.002604166666668,0)" xlink:href="#s"/><use transform="matrix(0.013020833333333334,0,0,0.013020833333333334,32.005208333333336,0)" xlink:href="#t"/><use transform="matrix(0.013020833333333334,0,0,0.013020833333333334,48.0078125,0)" xlink:href="#p"/><use transform="matrix(0.013020833333333334,0,0,0.013020833333333334,64.01041666666667,0)" xlink:href="#q"/></g><path d="M713 0H515L10-1349h201C345-955 498-579 615-168c116-411 269-787 402-1181h201" id="u"/><path d="M745-142h380V0H143v-142h422v-798H246v-142h499v940zM545-1292v-192h200v192H545" id="v"/><path d="M1018 0H814c-67-224-138-444-200-673C552-442 476-224 407 0H204L21-1082h178c43 310 105 601 126 933 54-225 128-425 193-638h193c63 212 134 415 185 638 22-336 90-622 136-933h176" id="w"/><g id="h"><use transform="matrix(0.013020833333333334,0,0,0.013020833333333334,0,0)" xlink:href="#u"/><use transform="matrix(0.013020833333333334,0,0,0.013020833333333334,16.002604166666668,0)" xlink:href="#v"/><use transform="matrix(0.013020833333333334,0,0,0.013020833333333334,32.005208333333336,0)" xlink:href="#q"/><use transform="matrix(0.013020833333333334,0,0,0.013020833333333334,48.0078125,0)" xlink:href="#w"/></g><path d="M1000-272c3 95 12 159 101 161 21 0 41-3 59-7V-6c-44 10-86 16-139 16-141 2-191-84-197-217h-6C748-76 648 20 446 20c-207 0-318-120-318-322 0-266 194-348 454-354l236-4c12-191-40-305-222-305-140 0-220 47-232 172l-188-17c33-204 181-292 423-292 255 0 401 118 401 364v466zm-683-27c0 109 63 184 175 182 166-3 259-96 306-217 24-65 20-120 20-200-232 7-501-28-501 235" id="x"/><g id="i"><use transform="matrix(0.013020833333333334,0,0,0.013020833333333334,0,0)" xlink:href="#n"/><use transform="matrix(0.013020833333333334,0,0,0.013020833333333334,16.002604166666668,0)" xlink:href="#s"/><use transform="matrix(0.013020833333333334,0,0,0.013020833333333334,32.005208333333336,0)" xlink:href="#x"/><use transform="matrix(0.013020833333333334,0,0,0.013020833333333334,48.0078125,0)" xlink:href="#s"/><use transform="matrix(0.013020833333333334,0,0,0.013020833333333334,64.01041666666667,0)" xlink:href="#q"/></g><g id="j"><use transform="matrix(0.010850694444444444,0,0,0.010850694444444444,13.335503472222221,0)" xlink:href="#n"/><use transform="matrix(0.010850694444444444,0,0,0.010850694444444444,26.671006944444443,0)" xlink:href="#s"/><use transform="matrix(0.010850694444444444,0,0,0.010850694444444444,40.006510416666664,0)" xlink:href="#x"/><use transform="matrix(0.010850694444444444,0,0,0.010850694444444444,53.342013888888886,0)" xlink:href="#s"/><use transform="matrix(0.010850694444444444,0,0,0.010850694444444444,66.67751736111111,0)" xlink:href="#q"/></g><path d="M648-963c-190 6-283 138-283 336V0H185v-1484h181c-2 197 6 404-9 587h3c62-120 159-205 339-205 242 0 351 135 350 381V0H868v-695c1-168-57-273-220-268" id="y"/><path d="M1048-32c-2 300-135 456-433 456-222-1-358-88-400-267l184-25c22 99 100 157 222 156 184-2 248-125 248-315 0-64 3-133-2-194C807-100 706-13 524-12c-306 0-381-228-381-537 0-318 85-550 400-550 164 0 271 83 325 202h3c1-60 3-134 12-185h171c-13 339-4 702-6 1050zM585-145c210-8 284-178 284-406 0-192-52-331-177-392-33-16-69-22-104-22-223 2-259 184-259 414 0 229 31 415 256 406" id="z"/><g id="k"><use transform="matrix(0.010850694444444444,0,0,0.010850694444444444,0,0)" xlink:href="#o"/><use transform="matrix(0.010850694444444444,0,0,0.010850694444444444,13.335503472222221,0)" xlink:href="#y"/><use transform="matrix(0.010850694444444444,0,0,0.010850694444444444,26.671006944444443,0)" xlink:href="#x"/><use transform="matrix(0.010850694444444444,0,0,0.010850694444444444,40.006510416666664,0)" xlink:href="#r"/><use transform="matrix(0.010850694444444444,0,0,0.010850694444444444,53.342013888888886,0)" xlink:href="#z"/><use transform="matrix(0.010850694444444444,0,0,0.010850694444444444,66.67751736111111,0)" xlink:href="#q"/></g><path d="M1034 0L896-382H333L196 0H0l510-1349h217L1228 0h-194zM847-531c-77-225-157-447-231-674-69 231-154 451-232 674h463" id="A"/><g id="l"><use transform="matrix(0.010850694444444444,0,0,0.010850694444444444,13.335503472222221,0)" xlink:href="#A"/><use transform="matrix(0.010850694444444444,0,0,0.010850694444444444,26.671006944444443,0)" xlink:href="#o"/><use transform="matrix(0.010850694444444444,0,0,0.010850694444444444,40.006510416666664,0)" xlink:href="#s"/><use transform="matrix(0.010850694444444444,0,0,0.010850694444444444,53.342013888888886,0)" xlink:href="#v"/><use transform="matrix(0.010850694444444444,0,0,0.010850694444444444,66.67751736111111,0)" xlink:href="#t"/><use transform="matrix(0.010850694444444444,0,0,0.010850694444444444,80.01302083333334,0)" xlink:href="#r"/></g><path d="M102-681c0-398 126-689 513-689 165 0 291 58 379 174s132 287 132 515c-1 318-88 554-298 657-123 61-317 58-438-3-206-104-288-341-288-654zm749 406c94-160 97-656-5-807-57-85-130-132-231-132-104 0-178 47-234 132-101 153-99 655 1 809 57 89 130 138 232 138 109 0 184-49 237-140" id="B"/><path d="M528 20c-247 0-343-132-343-381v-721h180v686c-4 177 45 284 224 277 194-8 279-136 279-336v-627h181c3 360-6 732 6 1082H885c-4-54-7-126-8-185h-3C809-64 714 20 528 20" id="C"/><path d="M698-1104c312 3 392 244 392 558 0 315-82 566-392 566-169 0-277-65-331-184h-5c8 188 2 394 4 589H185V-858c0-76-1-156-6-224h175c6 52 9 120 10 178h4c58-122 150-202 330-200zm-49 991c225 0 255-203 255-433 0-225-32-419-253-419-236 0-285 192-285 441 0 237 53 411 283 411" id="D"/><g id="m"><use transform="matrix(0.010850694444444444,0,0,0.010850694444444444,8.001302083333334,0)" xlink:href="#B"/><use transform="matrix(0.010850694444444444,0,0,0.010850694444444444,21.336805555555557,0)" xlink:href="#C"/><use transform="matrix(0.010850694444444444,0,0,0.010850694444444444,34.67230902777778,0)" xlink:href="#s"/><use transform="matrix(0.010850694444444444,0,0,0.010850694444444444,48.00781250000001,0)" xlink:href="#D"/><use transform="matrix(0.010850694444444444,0,0,0.010850694444444444,61.34331597222223,0)" xlink:href="#C"/><use transform="matrix(0.010850694444444444,0,0,0.010850694444444444,74.67881944444444,0)" xlink:href="#s"/></g></defs></g></svg>